<?xml version="1.0"?>
<svg xmlns:rdf="http://www.w3.org/1999/02/22-rdf-syntax-ns#" xmlns="http://www.w3.org/2000/svg" xmlns:cc="http://web.resource.org/cc/" xmlns:xlink="http://www.w3.org/1999/xlink" xmlns:dc="http://purl.org/dc/elements/1.1/" id="Layer_1" xml:space="preserve" viewBox="0 0 287.15 393.725" version="1.1" x="0px" y="0px" enable-background="new 0 0 287.15 393.725">
	<path d="m139.05 0.037c1.161-0.163 1.777 0.221 2 1-1.406 5.319 0.41 8.058 0 15-0.089 1.479 0.453 3.603 0 5-0.247 0.756-2.799 1.037-2 3-1.873-1.826-0.956-6.064-1-10-0.039-3.533 0.028-7.668 0-11-0.28-1.615 0.95-1.722 1-3z" fill="#004812"/>
	<path d="m113.05 12.037c0.475-0.613 3.798 1.218 4 2 0.156 0.604-2.007 4.062-4 4-2.18-2.091 0.5-2.854 0-6z" fill="#004812"/>
	<path d="m94.052 15.037h3v5c-3.124 0.458-3.198-2.137-3-5z" fill="#004812"/>
	<path d="m114.05 19.037c2.217-0.551 1.424 1.909 3 2-0.4 2.487-4.58 0.762-3-2z" fill="#004812"/>
	<path d="m120.05 25.037c-0.032 5.036-2.939 0.991-7 2 0.97-2.036 3.84-2.16 7-2z" fill="#004812"/>
	<path d="m137.05 25.037c2.27-0.966 2.789 5.738 3 8 0.076 0.829 0.177 2.188 0 3-0.178 0.811-1.021 0.997-1 2 0.086 4.354 3.365 11.375-2 11v-24z" fill="#004812"/>
	<path d="m204.05 28.037c2.14-0.03-0.34 8.791-1 10-0.17 0.31-0.706 0.363-1 1-0.715 1.545-1.155 2.89-2 5-0.382 0.95-1.258 2.236-2 4-2.549-0.487-0.093-4.395 0-6 0.132-2.341 1.23-3.111 2-5 0.95-2.341 2.05-6.933 4-9z" fill="#004812"/>
	<path d="m97.052 29.037h3c0.765 4.874 1.794 11.173 3 16 0.076 0.303 0.747 5.005-1 5-3.701 1.938-0.739-2.969-2-4-1.271-1.04-0.538-2.036-1-4-0.298-1.268-1.777-6.021-1-10-1.171-0.162-0.842-1.823-0.998-3z" fill="#004812"/>
	<path d="m114.05 37.037c3.189 0.22 2.032 7.099-2 6-1.07-3.736 2.49-2.85 2-6z" fill="#004812"/>
	<path d="m38.052 45.037c2.802-0.156 3.262 2.827 2 4-1.76-0.241-2.28-1.721-2-4z" fill="#004812"/>
	<path d="m120.05 51.037c3.156-1.287 3.155 8.286 0 7v-7z" fill="#004812"/>
	<path d="m196.05 51.037c-0.229 1.772 1.008 5.008-2 4 0.23-1.772-1.01-5.008 2-4z" fill="#004812"/>
	<path d="m138.05 53.037c1.161-0.163 1.777 0.221 2 1-0.605 3.355-1.085 5.716-1 9 0.068 2.737 1.076 5.208 1 8-0.181 6.457-2.694 12.839-1 19-5.174-0.573-1.974-6.054-2-10-0.06-8.299-0.71-20.433 1-27z" fill="#004812"/>
	<path d="m101.05 54.037c1.614-0.282 1.722 0.945 3 1 0.16 9.173 4.689 13.978 4 24-3.177 0.959-1.424-1.695-2-4-0.257-1.029-1.485-2.142-2-4-0.172-0.621 0.156-1.375 0-2-0.56-2.262-3.08-9.938-3-15z" fill="#004812"/>
	<path d="m78.052 55.037c1.973 0.789 3.595 3.498 2 5-2.974 0.213-3.527-3.566-2-5z" fill="#004812"/>
	<path d="m47.052 58.037c3.396 0.938 3.061 5.605 5 8 1.227 3.107 4.648 4.018 4 9-1.644-0.296-1.729-1.451-3-3-1.425-1.737-2.299-2.196-3-5-0.256-1.021-0.762-0.485-1-1-0.424-0.914-0.505-1.794-1-3-0.157-0.384-1.961-1.782-2-2-0.29-1.614 0.951-1.723 1-3z" fill="#004812"/>
	<path d="m191.05 58.037c1.161-0.163 1.777 0.221 2 1-0.974 5.36-4.105 8.562-4 15-2.569 0.096-1.432 3.903-4 4-2.087 9.914-7.228 16.773-10 26-3.829-1.312-0.906-3.734 0-6 0.142-0.355-0.276-1.774 0-2 0.812-0.665 1.069-2.546 2-5 0.151-0.403 0.944 0.031 1-1 0.131-2.475 1.84-4.323 3-7 0.155-0.36-0.283-1.769 0-2 0.115-0.096 0.939 0.125 1 0 0.173-0.363-0.292-1.762 0-2 0.114-0.094 0.943 0.122 1 0 0.708-1.543 0.229-3.434 1-5 0.284-0.578 1.644-0.523 2-1 0.266-0.354-0.331-1.729 0-2 0.813-0.667 2.155-4.662 3-7 0.77-2.141 1.58-4.011 2-6.003z" fill="#004812"/>
	<path d="m162.05 60.037c3.952 1.035 0.599 6.508 0 9-2.01-1.115-1.15-7.735 0-9z" fill="#004812"/>
	<path d="m122.05 67.037c1.162-0.163 1.778 0.221 2 1-1.29 10.162 0.19 16.905 0 28-3.439-1.052-1.7-6.535-2-10-0.31-3.637-2.57-13.951 0-19z" fill="#004812"/>
	<path d="m81.052 70.037c1.661-3.53 2.485 1.259 3 2 0.72 1.036 3.073 1.277 2 5-4.159 0.159-1.998-6.002-5-7z" fill="#004812"/>
	<path d="m159.05 74.037c1.161-0.163 1.777 0.221 2 1-1.235 2.72-1.064 5.258-2 9-0.251 1-1.612 2.146-2 4-0.385 1.829 0.289 3.956 0 6-0.322 2.268-1.585 4.735-2 7-1.132 6.145-0.201 12.842-4 17-3.031-3.087 0.337-6.673 1-10 0.161-0.815-0.575-4.53 0-5 2-1.637 1.498-5.588 2-10 0.77-6.776 3.56-12.908 5-19.003z" fill="#004812"/>
	<path d="m57.052 77.037c2.985-0.074 3.678 3.3 5 5 1.229 1.58 3.881 3.549 4 6-1.548 0.311-2.577-0.855-4-2-0.309-0.248-0.718-1.873-1-2-0.338-0.152-1.798 0.272-2 0-0.812-1.094-0.519-2.638-1-4-0.08-0.228-0.813-0.255-1-1-0.157-0.627 0.12-1.364 0-2z" fill="#004812"/>
	<path d="m206.05 77.037c3.507 0.688 0.581 7.308-3 7-0.44-3.777 1.97-4.695 3-7z" fill="#004812"/>
	<path d="m107.05 83.037h2v2h-2v-2z" fill="#004812"/>
	<path d="m230.05 83.037c1.229 0.437 2.053 1.279 2 3-1.928 1.8-3.268 4.628-5 7-0.956 1.307-2.164 1.751-3 3-0.781 1.167-1.064 2.751-2 4-0.61 0.814-2.093 1.732-3 3-0.556 0.772-1.946 1.964-2 3-0.033 0.618-3.969 6.193-6 4 0.886-2.468 2.381-3.982 4-6 1.489-1.855 3.622-3.232 5-5 0.272-0.352-0.334-1.728 0-2 1.536-1.258 2.378-2.694 4-5 0.683-0.971 2.368-2.105 3-3 0.253-0.36-0.327-1.731 0-2 1.07-0.875 2.39-1.666 3-4.003z" fill="#004812"/>
	<path d="m87.052 84.037c2.135-0.467 1.904 1.428 2 3-0.811-0.189-0.997-1.003-2-1v-2z" fill="#004812"/>
	<path d="m200.05 87.037c5.66 0.174-0.908 5.252-1 7-0.094 1.773-1.191 3.155-2 4-0.864 0.901-1.669 4.909-3 7-0.202 0.317-2.837 7.175-5 4 2.62-8.38 7.72-14.281 11-22.003z" fill="#004812"/>
	<path d="m90.052 88.037c1.701-0.368 1.887 0.78 2 2-0.851-0.184-0.943 0.389-1 1-1.173-0.162-0.844-1.823-1-3z" fill="#004812"/>
	<path d="m108.05 89.037c4.166-1.103 4.166 7.103 0 6v-6z" fill="#004812"/>
	<path d="m137.05 93.037h2v2h-2v-2z" fill="#004812"/>
	<path d="m70.052 95.037c1.76 0.241 2.279 1.72 2 4-3.009 1.003-1.773-2.228-2-4z" fill="#004812"/>
	<path d="m256.05 97.037c-0.329 3.671-2.803 5.199-6 6 0.77-3.236 2.77-5.236 6-6.003z" fill="#004812"/>
	<path d="m137.05 98.037h2v2h-2v-2.003z" fill="#004812"/>
	<path d="m9.052 99.037c3.261-0.261 4.812 1.188 5 4-3.26 0.26-4.813-1.19-5-4.003z" fill="#004812"/>
	<path d="m115.05 111.04c-1.059 4.246-4.161 10.754-2 15 1.569 2.085 4.765 0.729 7 1-0.248-0.03 0.618 0.904 1 1 2.062 0.516 6.092 0.114 9 1 0.136 0.041 0.327 0.831 1 1 1.357 0.339 2.007 0.337 3 1 2.179 1.452 3.507 3.054 6 5 4.201-2.408 11.341-0.343 16 0 1.382 2.951 4.617 4.048 6 7 7.031-0.032 11.01 2.991 15 6 4.489 0.491 7.492-0.507 11-1 0.99-2.675 2.061-5.272 2-9 6.955-2.378 14.062-4.604 23-5 0.656 1.342 2.137 1.862 4 2 0.979 4.646-1.298 6.037-2 9-0.307 1.86 3.314 0.164 4 1 0.553 0.675 1.368 1.396 2 2 1.46 1.397 2.928-0.32 6 1 1.072 0.461 1.849 3.457 5 3 1.883 4.117 4.986 7.012 6 12-1.075 1.365-2.11 2.479-4 4-1.568 1.262-3.008 1.856-5 3-1.701 0.977-1.269 1.316-4 2-1.099 0.274-4.396 2.31-7 3 1.703 3.968 5.042 1.04 8 1 5.587-0.076 12.659 0.799 19 0 3.26-0.411 6.272-2.585 9-3 5.057-0.771 13.271-0.407 17 1 0.353 0.133 1.777-0.27 2 0 0.08 0.099-0.104 0.962 0 1 2.249 0.818 5.036 1.07 7 2 0.481 0.229-0.098 0.942 1 1 1.189 0.062 3.22 1.482 5 2 0.686 27.358 1.355 57.052 1 88-2.443 2.534-2.132-2.108-6-1-0.444-4.445 2.708-5.292 4-8-1.678-20.486 2.104-45.851 0-68-0.206-2.178-1.651-3.892-1-6-0.64-3.044-4.686-3.342-8-5-0.729-0.365-1.571-1.837-2-2-1.63-0.619-4.787-0.386-7-1-2.011-0.559-3.61-1.911-5-2-1.969-0.127-3.99 0.713-6 1-2.099 0.299-4.396-0.49-6 1-0.349 2.845 1.918 3.167 4 4 1 0.4 0.383 0.54 1 1 1.836 1.37 5.057 1.984 5 5-3.211 2.916-4.368-2.282-7-3-1.196-0.452-2.318-1.271-4-2-0.36-0.156-1.77 0.283-2 0-0.098-0.117 0.123-0.94 0-1-0.363-0.172-1.762 0.292-2 0-0.489-0.599-2.118-1.264-5-2-1.977-0.505-1.895 0.105-3-1-1.031-1.032-12.125-0.613-14 2 0.296 3.37 4.433 2.9 5 6 2.753 1.547 0.098 6.002-1 7-3.145-1.394 1.375-4.936-1-6-0.744-3.255-4.959-3.041-7-5-6.781 2.507-14.581 7.865-22 4-3.301-0.225-3.865 3.254-5 5-0.36 0.555-0.939-0.157-1 1-0.084 1.581-2.084 2.154-2 5 3.865 3.135 3.137-5.006 7-5-0.456 5.543-3.456 8.543-9 9-2.5-6.821 4.778-10.75 6-17-3.521 0.02-5.961 3.392-8 6-0.54 0.69-1.581 1.399-2 2-0.253 0.36 0.326 1.732 0 2-0.133 0.108-0.923-0.14-1 0-0.206 0.366 0.308 1.748 0 2-0.117 0.096-0.941-0.125-1 0-0.174 0.362 0.291 1.76 0 2-0.094 0.075-0.97-0.096-1 0-0.869 2.709-0.797 6.623-1 10-6.385-0.843-0.479-7.901-1-12-3.155-0.822-3.709 1.638-5 3-1.036 1.093-2.181 2.786-3 4 0.592 3.605 1.688 6.705 0 10-2.093 2.18-2.854-0.5-6 0-0.719 2.236-2.182 4.035-2 6 0.236 2.572 1.381 2.513 3 4 1.377 1.263 2.369 2.783 4 3 0.753 1.561 1.952 2.774 3 4 0.994 1.164 2.794 1.973 3 4 2.016-0.714 2.186 1.628 3 2 1.531 0.699 3.392 0.162 5 1 0.613 0.319 1.19 1.502 2 2 0.327 0.201 4.637 3.349 5 4 0.203 0.366-0.31 1.747 0 2 2.039 1.668 1.035 7.716 2 13 0.057 0.314-0.223 1.818 0 2 0.115 0.096 0.939-0.125 1 0 0.173 0.362-0.292 1.76 0 2 1.104 0.903 0.507 1.37 1 3 0.184 0.61 0.984 0.931 1 1 1.765 7.898-0.582 14.087 3 18 0.492 0.538 2.177 1.956 3 2 1.44 0.075 2.16 1.903 4 2 0.69 0.036 3.322 1.012 4 2 6.477-2.22 14.193-7.306 23-4 4.088-3 1.261-7.667 2-12 0.452-2.657 1.956-6.061 3-9 0.777-2.194 0.995-5.165 2-7 0.285-0.523 0.933 0.126 1-1 0.206-3.511 0.39-9.525-4-10-6.469-0.803 0.044 11.377-5 12-4.806 0.137-2.419-6.916-4-10-4.639 0.304-8.656-0.01-11-2 0.895-5.979 4.017-5.805 10-5 0.24-5.242-0.789-9.212-3-12-6.711 1.043-9.768-1.567-13-4-1.511-4.616-0.972-8.917 1-13 1.899 0.234 1.166-2.167 2-3 0.833-0.835 3.253-0.08 3-2 0.502-4.169-2.924-4.411-2-9 4.678-2.585 5.356 3.646 8 6 1.711 0.043 2.59-0.744 3-2 0.614-0.891 1.208-1.789 0-2-0.311-2.338-1.957-4.132 0-6 4.894-0.561 4.782 3.883 7 6 3.129 0.204 7.341-0.675 9 1 0.326 4.66-4.598 4.07-7 6-0.049 4.714 3.228 6.105 3 11 3.147 1.52 6.349 2.983 10 4 0.73 1.841 2.077 3.697 3 6 0.142 0.355-0.276 1.774 0 2 1.006 0.822 0.304 0.602 0 2-0.557 2.556-0.591 2.878-1 6-3.246 1.087-3.773 4.894-6 7 0.328 2.337 1.201 4.131 2 6 0.003 1.03 1.253 0.701 2 1 1.119 0.447 2.282 1.748 5 2 1.613 1.385 3.166 2.833 5 4 3.155 0.489 3.531-1.803 7-1 2.156-0.265 3.011 2.593 4 4 0.561 0.798 1.535 1.335 2 2 0.252 0.36-0.326 1.732 0 2 1.342 1.098 1.142 6.056 4 8 5.581 1.581 2.049-5.952 8-4-0.099 3.235-4.533 2.134-3 7-2.466 0.132-4.818 0.151-6-1-1.485 0.847-1.447 3.218-2 5 0.322 0.029 0.836 1.972 1 2 0.84 0.145 1.067-0.988 1-1 0.273 0.051 2.311 1.689 3 1 0.618-0.619 4.065-2.709 6-4 0.748-3.252 1.811-6.189 3-9 2.74-0.924-0.301 3.938 1 5 1.881 1.538-0.228 0.817 0 4 0.064 0.911 1.085 1.522 1 3 0.007-0.13-0.969 0.381-1 1-0.516 9.786 0.687 26.842-1 37-3.314-0.353-4.34-2.996-6-5-6.386-0.616-7.847-6.155-16-5-0.151 4.817 5.031 4.3 4 10-4.396 0.396-2.61-5.39-6-6-2.076 0.256-0.272 4.394-2 5-3.087-1.554-1.36-5.549-2-8-1.176-4.508-4.234-8.054-5-12-3.77 0.77-4.78-1.221-8-1-1.605-1.337-2.92-2.674-5-4-0.593-0.378-0.605-0.721-1-1-2.047-1.447-4.224-2.345-6-4-2.128-0.854-1.331 1.414-2 2-1.438 1.258-6.099 1.013-7 4-0.281 1.786 0.943 2.052 1 1 1.614-0.282 1.721 0.944 3 1-0.314 3.034-5.647 4.059-8 2-1.098-6.764 5.44-5.892 7-10-0.487-2.549-4.396-0.092-6 0-1.41 0.079-2.645 0.456-4 1-1.243 0.497-2.128 1.163-3 2-0.852 0.813-2.162 1.196-3 2-0.852 0.814-2.162 1.196-3 2-1.03 0.986-4.439 4.561-7 5-0.41-2.411 1.826-2.174 1-5-4.549 0.118-6.936 2.398-9 5-1.472 3.803 4.47 0.196 3 4-0.886 4.213-4.812 1.408-7 2-2.632 0.71-6.965 3.072-10 5-0.716 0.453-1.36 1.53-2 2-0.614 0.45-1.354 0.522-2 1-0.677 0.498-1.363 1.533-2 2-2.595 1.897-6.08 7.104-8 11 0.617 2.512 2.267 3.576 4 5 2.466 2.022 4.228 2.219 6 5 0.455 0.714 2.02 1.729 3 3 0.271 0.353-0.334 1.728 0 2 1.479 1.21 3.099 7.697 3 12 2.511 2.155 3.152 6.179 6 8-0.164 4.496-0.224 8.889 3 10 1.235 3.235-3.235 0.764-2 4 3.865 3.626 13.47 1.649 19 1 0.128 1.793-1.226 2.108-1 4 15-0.511 30.094 0.672 46 0 0.276-0.013 1.849 0.186 2 0 1.052-1.286 0.432 0.164 2 0 1.769-0.188 2.132-0.911 4-1 3.778-0.182 8.59 0.883 12 0 3.583-0.929 6.304-4.1 9-6-1.514-1.413-3.159-4.856-1-7 0.934 0.731 1.515 1.817 2 3 2.503 1.318 3.131-3.954 4-1 0.118 6.785-1.731 11.602-1 19-0.807 1.13-2.371 0.606-4 1-7.104 1.709-21.428 0.269-32 1-3.073 0.212-4.742 1.656-10 1 0.201 0.024-0.469-1.666-1-1-0.539 0.673-1.554 1.314-3 1-2.186-0.476-2.614-0.34-6 0-10.103 1.013-22.114 0.734-32 0-1.974-0.147-2.728-0.98-4-1-0.42-0.007-8.36 3.002-10 1-1.521-1.86-2.556 0.701-7 0 0.188 0.029-0.462-1.674-1-1-1.128 1.406-0.444-0.411-2 0-0.294 0.076-0.011 1.026-1 1-2.011-0.055-2.728-1.035-4-1-0.747 0.02-1.075 1.243-2 1-0.31-0.082 0.041-1.146-1-1-0.035 0.004-0.257 0.96-1 1-0.985 0.052-2.015 0.026-3 0-2.439-0.066-4.433-1.777-8-1-0.827 0.18-0.983 0.973-2 1-2.562 0.064-4.979-1.875-9-1-0.837 0.181-0.98 0.938-2 1-2.169 0.131-2.586-0.995-4-1-1.59-0.007-1.756 1.06-3 1-1.937-0.092-2.896-0.823-5-1 0.311 0.025-0.52 1.602-1 1-1.784-2.23-3.729 0.044-7 0 0.217 0.002-0.448-0.973-1-1-1.228-0.064-3.932-0.627-6 0-2.012 0.606-1.694 0.276-5 0-1.868-0.157-4.118 1.025-6 1 0.217 0.002-0.448-0.973-1-1-10.127-0.534-25.128-1.064-37 0-1.553 0.139-1.755 0.939-3 1-18.799 0.888-38.917-1.99-60-1-0.504-5.171 2.831-6.503 2-12 3.964 0.36 9.594 1.052 14 0 2.973-0.711 4.383-3.175 7-3 2.028-3.305 2.612-8.055 7-9-2.801-4.188-9.252-0.794-10 3-2.815-1.011 0.276-4.248 0-6-2.423-2.244-5.324-4.009-7-7-0.26-5.594 0.183-10.485 3-13 0.739-3.665-2.46-5.557 0-8 2.349-2.438 2.238 1.114 4 2 2.784 0.45-0.784-5.451 2-5 3.034-0.368 2.076 3.256 3 5 3.06 0.726 2.94-1.726 6-1 1.02 4.353-2.068 4.598-3 7 0.624 3.709 2.812 5.855 4 9 2.925-0.408 3.244-3.423 5-5 2.197-1.136 3.322-3.345 6-4-0.938-3.085 2.87-5.544 3-8 0.024-0.466 0.747-1.453 1-2 0.282-0.612 0.5-2.273 1-3 1.727-2.512 6.014-3.231 6-7 4.12-0.546 5.853-3.48 9-5 0.363-1.885-2.337-1.189-3-2-0.118-0.146 0.15-0.903 0-1-0.364-0.236-1.737 0.32-2 0-0.28-0.345-0.659-1.77-1-2-0.361-0.247-1.733 0.325-2 0-0.764-0.934-1.081-1.225-2-2-0.934-0.788-2.278-1.015-2-3-5.544-2.554-11.889-3.803-18-1-0.138 1.862-0.658 3.342-2 4 0.993 4.496 7.28 6.218 4 12-3.009 0.253-1.882-3.116-3-5-1.051-1.77-2.123-3.22-4-4-1.71 0.979-5.312 0.312-7 2-0.764 0.763-4.984-1.434-7-1-5.103 1.097-7.848 4.978-13 6-0.564-17.521 0.991-34.264 0-47 2.763-2.47 5.08 1.57 9 1 2.979-0.021 1.282-4.718 3-6 2.665 1.002 3.298 4.036 5 6 4.354 1.586 9.285 3.441 15 3 3.503-0.271 7.103-2.449 10-3-0.561-1.439-1.561-2.439-3-3-2.106-0.7-1.356 1.213-2 2-0.632 0.771-1.693 0.918-2 2-2.856 0.519-4.743-0.335-7-1-1.394-0.412-5.39-0.455-5-3 3.102-0.101 4.777 1.222 7 2 4.429-1.905 9.206-3.461 13-6 0.202-4.479-0.29-8.967 1-13 0.106-0.336 0.948-0.022 1-1 0.027-0.532 0.753-1.37 1-2 1.259-3.208 1.502-3.736 4-7 0.433-0.565 0.938 0.165 1-1 0.103-1.932 5.25-5.345 7-7-1.64-2.703 1.918-3.207 3-5 0.84-1.393 0.896-3.736 2-5 2.01-2.303 5.691-2.992 7-6 2.477-1.523 5.947-2.053 7-5 0.188-2.1-0.654-5.98-2-8-0.241-0.363-0.648-2.714-1-3-1.542-1.262-1.44-6.282-3-9-3.08-5.371-6.802-8.092-14-6-1.43 0.415-3.93-0.494-4 2-3.815-1.185-3.185-6.815-7-8-2.269 3.508 2.52 7.066 3 11 0.24 1.759 1.721 2.279 4 2-0.714 3.286-0.474 7.525-4 8-0.086-1.42-0.165-2.832 1-3 0.307-2.307-2.89-1.111-3-3-0.044-2.494 0.237-4.702-1-7-0.353-0.654-1.686-1.432-2-2-0.855-1.548-1.188-3.552-2-5-0.411-0.734-1.535-1.366-2-2-0.738-1.009-0.996-3.193-2-5-0.24-0.434-1.36-0.898-1-2-6.956-1.266-17.235-6.164-25-3-1.165 0.475-1.179 1.452-2 2-0.961 0.64-2.275 0.191-3 1-1.075 1.201-1.771 3.35-2 5-1.553 4.218 5.553-0.219 4 4-1.086 0.247-0.679 1.988-2 2h-3c-0.161-1.172-1.822-0.844-3-1-0.538-4.538 2.011-5.99 3-9 1.556-3.555-3.396-0.604-3-3-0.84-1.161-1.318-2.682-1-5 4.49 0.491 7.493-0.507 11-1 2.63 0.296 0.786-3.88 4-3-0.363-1.885 2.337-1.189 3-2 1.052-1.285 1.34-1.712 3-3 1.849-1.436 3.326-3.69 6-4-0.16-2.544 1.539-4.743 3-7 0.358-0.555 0.939 0.155 1-1 0.098-1.843 4.672-4.672 7-7 2.146-2.146 4.043-5.536 6-7 0.355-0.266 1.729 0.331 2 0 1.253-1.532 3.14-2.961 6-4 4.98 1.686 8.286 5.046 8 12-3.338 0.926-2.236-4.004-3-5-1.535-2.003-3.181-1.721-5-3-2.909 0.691-5.747 2.407-8 4-4.522 3.197-8.146 7.455-12 12-1.084 1.278-2.731 2.177-3 4-1.039 3.545 2.71 2.225 4 3 0.725 0.436 1.361 1.533 2 2 0.618 0.452 1.149 0.793 2 1 7.3-3.7 13.55-8.451 21-12 1.757-0.911 1.829-3.504 3-5 3.851 1.324 0.219 4.937 0 8-0.344 4.823 0.258 10.757 0 16 4.035 0.009 3.707-4.763 5-7 0.31-0.536 0.939 0.139 1-1 0.068-1.298 1.573-1.246 2-2 0.664-1.174 0.169-2.934 1-4 0.418-0.536 1.479-1.479 2-2 0.562-0.562 1.425-1.514 2-2 0.794-0.671 2.093-0.32 3-1 0.455-0.341 0.566-1.723 1-2 3.171-2.027 6.796-3.529 11-4 0.535-3.869-1.785-4.882-1-9-5.895-1.105-10.617-3.383-15-6-3.089-11.962 8.29-16.653 14-23 3.156-0.49 3.531 1.802 7 1 2.556-0.112 1.984-3.349 2-6 1.162 0.163 1.778-0.221 2-1 1.162 0.163 1.778-0.221 2-1 3.657 0.342 4.576 3.423 6 6 1.313 1.021 3.687 0.98 5 2 1 1.33 1.65 3.02 3 4zm-15 2c0.142 0.632-0.156 1.372 0 2 0.155 0.62 0.981 0.93 1 1 0.665 2.455-0.982 6.926 3 6 1.721-2.256-0.184-5.618 0-9 0.227-4.164 0.898-5.047 0-8-0.38-1.248-0.146-2.294-1-3h-4c-0.561 4.63 0.508 8.8 1 11zm-7.998 0c2.253 1.374 0.552 3.98 1 6 0.031 0.144 0.82 0.284 1 1 0.633 2.531 1.168 2.398 1 5 2.357 1.468 1.86 2.11 5 1-0.385-6.283-2.331-11.003-3-17h-3c-0.518 1.48-1.478 2.52-1.998 4zm16.998 10c1.655-3.345 3.537-6.463 3-12-1.906-0.426-1.81-2.856-5-2-1.97 3.77-1.2 12.19 2 14zm-21.998-13c-0.057 2.379-2.777 2.135-4 3-0.465 0.329-0.51 1.632-1 2-0.949 0.712-2.202 0.218-3 1-0.307 0.3 0.185 1.591 0 2-0.169 0.375-1.801 0.531-2 1-0.7 1.644 0.907 4.126-1 6 2.611 2.722 4.894 5.772 10 6 0.221-0.779 0.838-1.163 2-1 3.035-5.372 3.073-12.965 2-20h-3zm18.998 19c-1.987-0.013-1.271-2.729-4-2-1.271 3.396-5.546 3.787-6 8 3.836-0.359 7.074-3.1 10-5 1.33-0.864 5.378-0.427 4-4-2.61-0.28-4.3 0.36-4 3zm21 3c-3.774-0.944-13.218-2.18-15 0-0.238 0.292-1.638-0.172-2 0-0.125 0.06 0.096 0.883 0 1-0.539 0.66-4.62 0.98-5 1-1.839 0.097-2.559 1.924-4 2-1.979 0.104-4.321 3.729-4 5 4.177 1.442 4.9-5.676 8-2-2.014 4.45-8.185 5.818-12 7-4.312 1.334-8.216 3.006-12 3-1.844 4.834-9.761 7.458-10 12-0.057 1.066-0.811 0.553-1 1-0.783 1.839-1.434 3.69-1 6 2.562 0.105 4.768 0.566 6 2 2.775 3.891 1.89 11.443 2 18-1.307 2.026-5.294 1.373-6 4 1.386 1.614 2.833 3.167 4 5-0.318 2.318 0.16 3.839 1 5 1.757 1.947 4.813 3.549 6 5 0.55 0.671 1.558 1.194 1 3 3.078 0.743 1.922-2.745 5-2-0.788 2.839 3.205 2.905 5 3 0.748 0.039 0.96 0.993 1 1 1.394 0.197 2.999-0.809 5-1 2.312-0.224 4.683 0.167 7 0v-7c1.479-0.521 2.521-1.479 4-2-0.405-6.072 3.524-7.809 5-12-3.14-1.527-8.345-0.99-8-6 0.778-0.221 1.162-0.837 1-2 3.745 0.731 5.59 0.572 9-1-0.376-3.958-1.404-7.262-3-10-7.42 1.476-15.395 1.436-16-5-0.253-2.686 2.462-3.22 2-7 2.005-1.662 4.647-2.686 5-6-0.799-3.533-3.219-5.474 0-8 3.447 0.553 2.431 5.569 7 5 3.66-2.998-4.145-7.486 1-9 4.204-0.871 3.346 3.321 5 5 4.03 1.097 7.714-3.257 9 1 1.682 5.681-5.756 2.245-5 7 0.329 2.337 1.202 4.131 2 6 4.049 0.284 6.951 1.716 11 2 0.896 2.855 3.315 4.029 4 8 0.355 2.068-0.561 4.983 0 7 0.632 2.276 3.618 3.643 3 6 5.905-0.094 9.086-2.915 16-2 1.61 2.572 3.846 4.097 5 8 1.379 4.667-0.38 11.508 2 16 4.394-0.94 4.502-6.165 7-9 3.327-0.806 5.16-2.936 7-4 3.965-2.295 8.622-5.509 9-10-2.005-1.664-3.705-3.629-7-4-2.648-4.685-8.41-6.256-9-13-2.313-2.02-5.344-3.323-6-7 1.428-3.572 5.831-4.167 7-8-5.094-4.574-15.535-3.799-18-11-7.896-1.967-16.688-0.458-23 2-1.182 0.145-2.268 1.78-3 0-0.898-4.232 5.649-1.018 5-5-0.87-3.02-5.9-3.73-7-4zm64 11c0.011 2.656-0.378 5.711 1 7-3.799 4.038-0.605 12.427 0 18 2.133 2.771 5.446-1.85 6 2-1.478 0.746-0.914 1.685-3 2-1.906 0.289-3.822-0.154-4-2-3.479-3.854-2.28-12.386-4-18-3.297 0.371-4.997 2.336-7 4-2.053 1.948-6.604 1.396-7 5 0.23 2.422 2.08 5.327 4 8 0.946 1.318 1.836 1.651 3 3 1.385 1.604 2.814 3.938 4 4 1.839 0.097 2.558 1.924 4 2 1.132 0.061 0.473 0.706 1 1 2.869 1.595 6.603 0.422 8 0 4.335-1.311 6.569-0.154 9-3-0.766-8.282 0.674-13.347 2-18 0.679-2.382 1.323-4.942 2-7 1.416-4.319 3.823-8.169 4-13-8.09-2.29-18.57 0.42-23 5zm23 5c-2.123 2.199-2.818 7.034-4 8-0.257 0.208 0.02 2.623 0 3-0.052 0.956-0.908 0.692-1 1-1.369 4.564-0.941 8.784-1 14 2.586 0.771 3.14-2.585 4-4 3.645-6 5.201-12.913 7-20-1.91-0.43-1.81-2.86-5-2zm8 3c-1.827 2.899-3.61 6.235-3 10 0.644 3.971 6.117 8.089 9 8 1.564-0.049 3.451-1.68 5-3 1.321-0.012 0.913-1.753 2-2-1.54-7.13-5.87-11.47-13-13zm-110 4c0.784 4.215 1.237 8.762 7 8 0.136-4.802-0.761-8.573-4-10-0.26 1.4-2.19 1.14-3 2zm-55.998 0c0.461 1.881-2.439 1.218-3 2-0.296 0.412-0.994 3.962-1 4-0.286 1.958 0.216 4.032 0 6h6c1.091-2.33 3.002-12.59-2-12zm-29 7c3.78 0.22 4.856 3.145 8 4 0.993-4.7-7.251-7.27-8-4zm83.998 3c0.229-3.562-1.438-5.229-5-5-3.17 3.09 1.91 8.17 5 5zm-94.998 3c-0.001 1 0 2 0 3h11c0.278-4.7-7.895-4.87-11-3zm14 1h2v-2h-2v2zm87.998 3c3.119 1.546 1.138 8.195 6 8 2.338-3.578-0.061-9.526-2-12h-3c-0.31 1.35-1.42 1.91-1 4zm15 0c0.457-3.125-2.137-3.197-5-3-1.12 4.04 3.07 4.94 5 3zm-95.998-2c-0.885-0.769-2.855 0.614-3 1-1.218 3.24 5.422 1.1 3-1zm16 1c-0.846 0.845-6.534-0.082-8 0-0.288 0.016 0.11 1.222-1 1-0.409-0.082 0.146-1.058-1-1-1.371 0.068-2.2 0.385-3 1 0.302 3.21 3.673 5.039 6 7 1.191 1.004 1.857 2.214 3 3 1.825 1.255 4.364 2.223 5 3 0.238 0.292 1.637-0.172 2 0 0.124 0.06-0.097 0.883 0 1 0.208 0.254 1.656-0.107 2 0 2.157 0.678 5.326 1.176 6 2 0.168 0.205 1.701-0.036 2 0 4.382 0.525 5.303-0.728 8-2-0.59-6.078 2.241-15.575-5-15-3.085 0.355 2.633 5.095-1 6-2.645-2.68-12.273-8.73-15-6zm77.998 5c-7.243 6.423-14.605 12.729-18 23 4.178-0.845 4.724 1.943 8 2-0.255-1.921 2.166-1.167 3-2 0.309-0.309-0.187-1.586 0-2 0.099-0.219 1.771-0.78 2-1 1.687-1.626 3.527-3.156 5-5 1.857-0.11 2.531-1.876 4-3 1.248-0.955 4.596-1.094 4-4-1.43-3.91-4.09-6.58-8-8zm67 7c3.044-0.289 6.824 0.159 7-3-2.98 0.35-6.09 0.58-7 3zm12-1c-1.908 0.893-3.655 1.385-5 3 1.245-0.285 2.778 0.371 4 0 0.369-0.113 1.497-1.794 2-2 1.543-0.636 5.609 0.217 5-3-2.6-0.32-4.23 1.17-6 2zm-64 3c-0.189 0.087-0.823 1.785-1 2-0.276 0.337-1.691-0.314-2 0-0.295 0.299-0.9 2.748-1 3-0.768 1.931-1.781 4.127-2 5-0.665 2.662 0.506 4.8 0 7 7.522-0.19 12.917 1.748 21 1 0.428-8.095-1.062-14.271-4-19-3.98 0.19-8.1-0.35-11 1zm-27 22c0.952 1.529 0.506 5.601 4 5 0.105-5.772-2.79-8.544-7-10-0.27 3.21 2.28 3.83 3 5zm-10-1c0.859 3.808 3.569 5.764 8 6 0.11-4.52-4.11-8.66-8-6zm54 1c-0.837-0.045-0.848-0.97-1-1-2.178-0.442-5.214 0.413-8 0-1.472-0.22-1.853-0.89-4-1-4.727-0.245-9.886-0.419-14 0-0.053 0.005 0.052 0.938 0 1-0.201 0.246-1.663-0.096-2 0-1.098 0.311-2.31 0.899-3 1-1.649 0.237-4.989-2.651-4 1 0.012 1.008 1.753 1.257 2 0 6.696-0.661 15.161 0.503 19 1 4.603 0.596 8.076 0.834 11 1 1.395 0.078 8.776 3.404 9-1-0.96-1.86-2.77-1.89-5-2zm63 15c2.465 0.132 4.817 0.151 6-1-1.489-4.178-0.985-10.349-6-11-4.06 3.08-0.2 7.48 0 12zm-105-4c-1.613-0.699-3.932-1.944-5-2-1.839-0.099-2.559-1.925-4-2-2.219-0.117-1.342-2.861-4-2-0.658 1.342-2.138 1.862-4 2-1.728 0.605 0.077 4.743-2 5-1.165-0.169-1.086-1.582-1-3-3.562 1.597-9.71 2.423-11 4-0.201 0.246-1.663-0.096-2 0-1.247 0.353-2.135 0.77-3 1-1.859 0.496-4.698 0.471-6 1-0.443 0.18-1.477 1.694-2 2-2.711 1.579-4.394 1.686-6 3-2.594 2.122-4.647 4.425-7 6-0.744 3.078 2.744 1.921 2 5-1.794 1.822-4.72 3.016-6 4-0.843 0.646-1.214 1.346-2 2-2.096 1.741-4.691 3.691-6 5-0.371 0.371-1.789 1.648-2 2-1.03 1.71-0.597 5.104-1 6-0.168 0.372-1.86 0.508-2 1-1.227 4.311-0.604 10.35-1 16 3.729 1.062 1.583-3.752 5-3-0.647 2.504-2.134 3.996-3 7-1.088 3.771-0.826 8.907-2 13 0.11 1.889 3.307 0.693 3 3-3.728 1.588 0.868 2.818 1 4 0.14 1.256-1.432 1.401-1 3 0.614 1.385 3.85 0.15 4 2-2.978 3.095 3.895 1.98 2 7h4c-0.756 3.051 1.811 3.938 3 4 2.516 0.132 2.515 4.335 5 3 2.986-5.681 10.189-7.145 14-12-1.122-0.212-1.557-1.111-2-2-1.859-2.065-6.896-5.026-7-7-0.151-2.888-6.079-4.54-4-9 1.716-3.951 6.396-4.938 9-8-0.49-4.491 0.507-7.493 1-11 3.778-2.888 9.436-3.897 16-4 2.357-0.31 1.86-3.474 5-3 2.409-0.411 2.174 1.826 5 1 2.711 0.622 2.489 4.178 6 4 1.986-0.014 1.271-2.729 4-2-0.024 1.614 1.832 0.498 3 1 0.468 0.2 1.455 1.684 2 2 1.114 0.646 2.112 0.309 3 1 1.319 1.026 2.856 4.235 3 5 0.566 3.03 1.543 3.766 0 5-0.673 0.537 1.029 1.188 1 1 1.026 6.589 1.618 10.857-1 13-0.319 0.26 0.231 1.635 0 2-0.228 0.355-1.62 1.62-2 2-2.214 2.213-5.856 3.692-6 7 8.094 2.239 13.896 6.771 19 12h7c4.641 4.551 10.12 0.752 15 3 0.11-0.663 2.39-2.122 3-2 0.382 0.076-0.173 1.359 1 1 0.535-0.165 1.016-1.729 2-2 1.202-0.334 2.839 0.444 4 0 0.678-0.26-0.211-1.759 1-2 0.822-0.165 1.46 1.23 2 1 0.729-0.312 0.727-1.934 2-2 1.155-0.062 0.443-0.641 1-1 1.6-1.038 4.178-1.31 5-2 0.814-0.686 0.11-3.349 2-3 1.16-0.84 2.682-1.319 5-1 3.872-4.593 6.355-11.346 7-19 0.515-6.12 0.406-16.032-2-18-0.257-0.21 0.02-2.624 0-3-0.049-0.925-0.928-0.733-1-1-1.705-6.267-2.021-9.354-4-12-0.771-1.03-1.244-1.988-2-3 0.933-1.067 3.688-0.312 3-3-1.902-2.099-2.725-5.276-7-5-1.057 5.055 2.277 5.721 2 10 1.311 0.014 1.272 2.773 0 3-1.797 0.128-2.341-0.993-2-3-1.613-1.858-1.144-4.877-2-7-0.186-0.458-1.718-1.447-2-2-0.693-1.355-0.188-2.772-1-4-0.33-0.498-1.957-1.958-3-3-3.51-3.509-8.569-8.416-12-10-0.549-0.254-1.535-0.976-2-1-1.068-0.057-0.552-0.808-1-1-2.539-1.091-7.974-2.689-9-3-1.696-0.513-2.844-0.537-4-1-0.244-0.099-0.734 0.014-1 0-0.901-0.049-0.765-0.94-1-1-5.789-1.461-11.312-0.996-15-3-1.728 0.605 0.077 4.743-2 5-1.3-1.3-2.52-1.36-4-2zm25-5c-0.264 5.928 7.035 4.297 11 6 0.561 2.896 1.561-1.534 3-1v-4c-3.8-0.91-10.2-3.29-14-1zm70 11h5c1.147-1.879-0.186-7.96-4-8-1.64 2.42-2.55 4.86-1 8zm16 20c8.452 0.05 4.044-12.157 2-16-9.1 0.02-2.98 11.48-2 16zm11-6c1.386-1.68 2.309-8.961-2-8-0.07 3.4-0.31 6.98 2 8zm1 18c-1.979 2.688-4.405 4.928-4 10 5.568-0.43 10.773-1.226 13-5-2.8-1.87-4.88-4.46-9-5zm14 7c-0.239 0.29-1.639-0.174-2 0-0.125 0.059 0.096 0.882 0 1-0.26 0.315-1.636-0.224-2 0-1.072 0.654-2.118 2.354-3 3-2.198 1.612-6.212 2.913-6 6-2.34-0.52-3.042 1.885-4 3-0.962 1.117-3.09 3.115-3 5 5.046-0.714 7.3 1.365 11 2 0.336 0.983 1.327 1.354 2 2 0.84 0.809 0.963 2.383 3 2 2.814-1.954 6.854 0.065 10-1 0.225-0.077 1.507-1.696 2-2 0.727-0.447 1.41-0.45 2-1 0.78-3.494 2.188-5.788 2-9-0.27-4.567-4.555-8.717-6-12-3.12-0.59-5.51 0.4-6 1zm-160 1c-0.261 1.405-2.193 1.139-3 2-0.91 4.756-2.271 9.062-2 15 7.772 2.572 10.291-7.324 11-15-2.09-0.58-2.85-2.48-5.998-2zm-16 4c-6.55 9.522-1.252 26.104 3 34 7.882-1.255 4.811-4.686 5-11 0.139-4.617-0.415-9.622 0-14 0.097-1.018 0.816-1.161 1-2 0.758-3.487-0.387-5.696 1-8-4.258-0.59-6.614 0.72-10 1zm27.998 16c-1.26 1.977-1.387 4.737-2 7-0.681 2.506-3.218 5.427-1 8 2.55-0.453 4.261-1.292 5-2 0.271-0.26 1.984-1.707 2-2 0.061-1.133 0.706-0.474 1-1 0.52-0.936 0.365-2.005 1-3 0.275-0.433 1.659-0.547 2-1 0.508-0.678 0.694-2.403 1-3 0.066-0.132 0.877 0.102 1 0 0.27-0.222-0.134-1.647 0-2 0.45-1.195 1.093-2.258 2-3 0.246-0.202-0.095-1.664 0-2 0.909-3.218 0.485-2.057 0-4-0.151-0.606 0.215-1.416 0-2-0.889-2.419-4.082-5.757-8-6-2.33 4.16-2.14 13.09-4 16zm-7 1c-0.436 3.439 0.239 4.985-1 6-0.714 0.584-0.194 6.291 1 5 2.686-8.647 7.186-15.481 7-27h-4c-0.77 4.8-2.27 10.24-3 16zm-96.998 7c3.657 0.657 3.836-2.164 7-2 5.641-0.89 10.467 3.31 11-3-4.148-6-16.716-1.1-18 5zm65-7c-0.224 0.775-0.027 1.972-1 2 0.57 2.762 1.06 5.607 5 5 1.633-1.928 1.691-8.343-2-8-0.221 0.78-0.838 1.16-2 1zm175 1c0.007 1.47 2.781 5.022 4 2-1.272-0.491-1.893-1.314-3-2-0.382-0.236-0.862-0.925-1-1-0.404-0.222-9.947-2.954-6 1 1.23-3.04 3.44 1.08 6 0zm-124 4c3.008 1.008 1.772-2.229 2-4-3.01-1.01-1.77 2.22-2 4zm144-3c0.022-0.007-0.547 0.817-1 1-1.833 0.732-5.833 1.033-5 4 5.474-0.479 9.512 2.394 14 0 1.064-2.718 0.634-4.684-2-6-0.76 2.18-4.28 0.57-6 1zm-19 9c2.432-3.163-2.097-6.049-4-8h-5c1.47 4.19 4.44 6.89 9 8zm-218-3c-0.977 2.901-2.811 8.875 1 9 2.836-1.832 1.822-7.511 3-11-1.278-0.056-1.386-1.282-3-1-0.623 1.08-0.541 1.63-1 3zm-11 2c0.284 1.246-0.371 2.779 0 4 0.108 0.357 1.771 1.521 2 2 0.809 1.695 0.61 5.48 4 5 0.336-1.265 0.915-1.404 1-3 0.045-0.853 0.963-0.827 1-1 0.396-1.854-0.018-4.945 0-7 0.016-1.861 1.665-5.309-1-4-0.781 2.88-4.838 2.49-7 4zm252 3c0.678-0.828 4.145 0.688 3-2-5.431 0.762-8.101-1.234-13-1-0.776 0.224-1.974 0.026-2 1 2.49 3.4 9.19 5.44 12 2zm-267 1c-0.044 1.376 0.471 2.195 1 3 2.669 4.331 5.756 8.243 14 7 0.728-5.062-2.744-5.924-3-10-4.861 1-9.56-1.71-12 0zm128 15c-3.057 0.036-4.92-2.771-7-4-2.456-1.453-4.973-1.859-7-4-13.533-0.201-23.818 2.848-36 4-0.545 1.771-1.948 4.026-2 5-0.107 2.043-5.531 4.979-2 7 1.848-1.748 3.023-7.477 6-5-2.223 4.111-4.294 8.372-9 10-0.222-0.78-0.838-1.163-2-1-0.427-5.095 1.535-7.799 3-11-2.979 0.463-5.626 3.741-7 5-3.097 2.835-7.616 5.056-10 7-4.105 3.348-6.521 6.681-10 10-0.316 4.684-2.139 7.86-3 12-5.436 1.897-9.614 5.052-10 12 1.891 0.223 2.206-1.128 4-1-1.036 4.164 1.928 2.634 4 3 1.3 0.229 1.372 0.963 3 1 1.484 0.033 2.064-0.896 3-1 1.642-0.184 3.326 1.116 4 1 0.146-0.024 0.318-1.8 1-2 0.653-0.191 2.07 0.36 2 1-0.113 1.219-0.299 2.367-2 2-0.485 1.181-1.065 2.268-2 3h-6c-0.713 2.493 4.401 4.108 1 6-1.313 0.216-0.495-1.384-1-2-0.273-0.336-1.702 0.318-2 0-0.735-0.793-0.094-4.188-3-3-0.367 7.034 6.149 7.184 9 11-2.503 2.519-3.927-1.147-7-1-1.045-3.623-4.697-4.637-4-10h-7c-3.006 2.78-4.299 10.522-1 14h5c3.163-3.657-6.816-6.809-3-11 2.439 2.561 4.556 5.443 6 9 6.897 2.979 18.669 2 30 2 8.765-0.002 18.146 0 26 0v-9c-7.542 1.54-7.24-4.759-7-11 2.111 1.764 2.956 2.254 6 1-0.197 2.863-0.125 5.456 3 5 0.657-3.658-2.164-3.837-2-7-1.553 0.406-2.348-0.564-3-1-0.618-0.413-1.288-1.611-2-2 0.091-1.577 2.551-0.783 2-3-1.48-0.187-0.917-2.418-1-4-4.866-0.27-9.253-2.564-10-7-0.565-3.361 1.082-5.64 2-9 1.991-1.009 3.502-2.499 5-4-0.697-3.712-1.852-6.87 2-8 2.026 1.306 1.373 5.293 4 6 1.344-1.676 1.244-1.424 2-4 0.565-1.931-1.492-5.849 2-5 2.516 0.817 1.395 5.271 3 7 1.891 0.224 2.206-1.128 4-1 0.181 2.819 4.753 1.247 4 5-0.485 1.181-1.066 2.268-2 3-1.16-0.84-2.682-1.319-5-1-0.085 4.418-0.193 8.86 4 9 0.012-1.323 11.031 5.11 12 8 0.538 1.605-0.054 4.064 1 6-1.165 0.168-1.086 1.58-1 3-1.405 0.26-1.14 2.192-2 3-1.257 0.409-2.044 1.289-2 3-1.343 5.881 3.013 11.373-1 14-4.231-1.77-2.402-9.597-9-9 1.549 4.118 2.581 8.752 5 12 11.881 0.451 25.702-1.036 36 1 1.353-0.314 1.909-1.424 4-1 1.993-1.007 1.577-4.423 5-4v4h9c1.539-0.873 3.609-6.284 5-4-0.314 1.353-1.424 1.909-1 4h5c2.568-2.432 4.217-5.783 7-8 1.528 3.18 0.352 4.399 0 8 6.693-1.04 4.174-15.932 2-20-4.08-0.746-0.191 6.477-5 5 0.465-5.624 2.598-18.058-1-21-0.326-0.269 0.247-1.64 0-2-0.237-0.345-1.652-0.717-2-1-0.334-0.272 0.272-1.648 0-2-0.716-0.92-4.572-4.68-5-5-0.878-0.658-2.223-0.394-3-1-0.488-0.382-0.478-1.607-1-2-0.849-0.636-2.239-0.447-3-1-0.474-0.345-0.5-1.625-1-2-1.167-0.877-2.898-0.072-3-2-0.062-1.158-0.466-0.453-1-1-0.614-0.63-1.367-1.396-2-2-4.016-3.829-4.396-3.345-8-5-0.122-0.057 0.094-0.886 0-1-0.377-0.461-3.326-0.946-4-1-2.358-0.188-4.858 1.009-7 1-0.65-2.68-2.86-3.81-4-6zm-112-2c3.883 0.216 6.272-1.061 7-4-2.515 1.15-6.86 0.47-7 4zm11-3c-0.8-0.8-0.89 1.863-1 2-0.231 0.283-1.824-0.308-2 0-0.279 0.488 0.431 2.201 1 2-0.044-1.63 3.541-2.46 2-4zm62 28c2.059 2.072 5.072-0.004 5-3h-4c0.043 1.37-0.471 2.19-1 3zm-3 10c1.633-1.928 1.691-8.344-2-8-2.493 1.91-0.727 7.99 2 8zm-64 5c0.379 0.798-0.427 2.229 0 3 0.236 0.427 1.757 0.485 2 1 0.719 1.515-0.167 2.044 1 3 0.301 0.245-0.319 1.793 0 2 0.705 0.456 2.235-0.365 3 0-0.468-3.533-2.525-5.475-4-8-2.196-1.805-0.778-7.222-5-7-1.746 3.34 2.731 5.43 3 6zm76.998 10c2.559-3.799-1.813-7.772-2-12-1.278-0.057-1.386-1.282-3-1-1.057 3.44 0.292 12.1 5 13zm-78.998-1c2.081-3.061-2.972-5.897-3-10-1.278-0.057-1.386-1.282-3-1-2.848 4.93 0.893 10.8 6 11zm85.478-2.66c1.16 0.838 1.201 1.979 3.52 1.661 0.655-2.895 0.816-8.123-3.051-7.549-0.43 1.9-0.62 3.4-0.47 5.89zm-6.48 8.66h2c-0.003-1.004 0.811-1.189 1-2-1.278-0.057-1.386-1.282-3-1v3zm-1 16c0.221-0.779 0.838-1.163 2-1 0.616-4.284-3.256-4.078-3-8h-3c0.517 3.81 1.174 7.49 4 9z" fill="#004812"/>
	<path d="m125.05 99.037c0.281 2.615-0.364 4.301-3 4-0.28-2.62 0.37-4.305 3-4.003z" fill="#004812"/>
	<path d="m73.052 100.04c0.811 0.19 0.997 1.003 2 1 0.011 2.15-4.874 1.02-2-1z" fill="#004812"/>
	<path d="m99.052 102.04h4c0.854 0.706 0.62 1.752 1 3 0.898 2.953 0.227 3.836 0 8-0.184 3.382 1.721 6.744 0 9-3.982 0.926-2.335-3.545-3-6-0.019-0.07-0.845-0.38-1-1-0.156-0.628 0.142-1.368 0-2-0.492-2.2-1.561-6.37-0.998-11z" fill="#fff"/>
	<path d="m17.052 103.04c3.458 1.542 7.651 2.977 11 5 0.619 0.374 1.445 1.702 2 2 1.806 0.972 6.903 1.779 6 6-1.196 0.981-1.728 0.679-3 0-0.431-0.229-0.641-1.838-1-2-0.507-0.229-1.546 0.308-2 0-0.364-0.248-0.68-1.854-1-2-1.387-0.625-3.325-0.43-4-3-2.832-0.167-4.168-1.833-7-2-0.777-0.89-1.075-2.26-1-4z" fill="#004812"/>
	<path d="m137.05 103.04c2.915-1.47 2.915 4.47 0 3v-3z" fill="#004812"/>
	<path d="m246.05 103.04c1.229 0.437 2.053 1.279 2 3-3.439 1.561-6.979 3.021-8 7-3.924-0.256-3.718 3.617-8 3-0.359-3.374 3.252-3.587 5-5 0.206-0.167 1.92-0.824 2-1 0.175-0.389-0.301-1.728 0-2 0.629-0.572 2.299-0.611 3-1 0.526-0.293-0.133-0.939 1-1 0.62-0.04 2.41-1.31 3-3z" fill="#004812"/>
	<path d="m124.05 106.04c1.94-0.396 1.461 4.555-1 3v-2c0.85 0.18 0.95-0.39 1-1z" fill="#004812"/>
	<path d="m56.052 107.04c3.86-0.194 5.745 1.587 6 5-0.969 1.341-2.758 0.114-4-1-1.111-1-2.897-1.42-2-4z" fill="#004812"/>
	<path d="m94.052 109.04h3c0.669 5.997 2.615 10.717 3 17-3.14 1.11-2.643 0.468-5-1 0.168-2.602-0.367-2.469-1-5-0.18-0.716-0.969-0.856-1-1-0.448-2.02 1.253-4.626-1-6 0.522-1.48 1.482-2.52 2.002-4z" fill="#fff"/>
	<path d="m107.05 109.04c3.19-0.856 3.094 1.574 5 2 0.537 5.537-1.345 8.655-3 12-3.2-1.81-3.97-10.23-2-14z" fill="#fff"/>
	<path d="m90.052 110.04c1.073 7.035 1.035 14.628-2 20-1.162-0.163-1.779 0.221-2 1-5.106-0.228-7.389-3.278-10-6 1.907-1.874 0.3-4.356 1-6 0.199-0.469 1.831-0.625 2-1 0.185-0.409-0.307-1.7 0-2 0.798-0.782 2.051-0.288 3-1 0.49-0.368 0.535-1.671 1-2 1.223-0.865 3.943-0.621 4-3h3z" fill="#fff"/>
	<path d="m124.05 112.04h2v2h-2v-2z" fill="#004812"/>
	<path d="m186.05 112.04c2.007-0.34 3.128 0.204 3 2-2.01 0.34-3.13-0.21-3-2z" fill="#004812"/>
	<path d="m137.05 114.04c0.381-1.904 1.271 0.638 1 2-0.38 1.9-1.27-0.64-1-2z" fill="#004812"/>
	<path d="m168.05 114.04h2v2h-2v-2z" fill="#004812"/>
	<path d="m38.052 117.04c2.356 0.977 6.344 0.323 6 4-1.534 1.24-7.048 0.39-6-4z" fill="#004812"/>
	<path d="m271.05 118.04v2c-4.87 1-1.84-5.32 0-2z" fill="#004812"/>
	<path d="m166.05 118.04c2.077 0.561 2.118 1.561 1 3h-2c-0.28-1.62 0.95-1.72 1-3z" fill="#004812"/>
	<path d="m262.05 122.04c-2.494 3.505-6.348 5.653-11 7-2.593 1.076-3.719 3.615-7 4-1.22-3.823 3.682-4.532 6-6 0.552-0.35-0.154-0.939 1-1 1.44-0.076 2.16-1.903 4-2 2.07-0.11 4.17-4.54 7-2z" fill="#004812"/>
	<path d="m182.05 122.04c-0.423 1.912-0.363 4.304-3 4-0.28-2.62 0.37-4.3 3-4z" fill="#004812"/>
	<path d="m49.052 123.04c3.146-0.479 3.909 1.424 6 2-0.82 3.79-6.605 1.53-6-2z" fill="#004812"/>
	<path d="m110.05 126.04c1.378 3.573-2.67 3.136-4 4-2.926 1.9-6.164 4.641-10 5 0.454-4.213 4.729-4.604 6-8 2.729-0.729 2.013 1.987 4 2-0.3-2.64 1.39-3.28 4-3z" fill="#fff"/>
	<path d="m162.05 126.04c3.938-0.504 1.822 6.954-1 6-0.72-3.06 1.02-3.65 1-6z" fill="#004812"/>
	<path d="m197.05 126.04c2.84 0.12 1.923 4.264-1 4-0.42-2.09 0.69-2.65 1-4z" fill="#004812"/>
	<path d="m134.05 136.04c0.649 3.982-5.898 0.768-5 5 0.732 1.78 1.818 0.145 3 0 6.312-2.458 15.104-3.967 23-2 2.465 7.201 12.906 6.426 18 11-1.169 3.833-5.572 4.428-7 8 0.656 3.677 3.687 4.98 6 7 0.59 6.744 6.352 8.315 9 13 3.295 0.371 4.995 2.336 7 4-0.378 4.491-5.035 7.705-9 10-1.84 1.064-3.673 3.194-7 4-2.498 2.835-2.606 8.06-7 9-2.38-4.492-0.621-11.333-2-16-1.154-3.903-3.39-5.428-5-8-6.914-0.915-10.095 1.906-16 2 0.618-2.357-2.368-3.724-3-6-0.561-2.017 0.355-4.932 0-7-0.685-3.971-3.104-5.145-4-8-4.049-0.284-6.951-1.716-11-2-0.798-1.869-1.671-3.663-2-6-0.756-4.755 6.682-1.319 5-7-1.286-4.257-4.97 0.097-9-1-1.654-1.679-0.796-5.871-5-5-5.145 1.514 2.66 6.002-1 9-4.569 0.569-3.553-4.447-7-5-3.219 2.526-0.799 4.467 0 8-0.353 3.314-2.995 4.338-5 6 0.462 3.78-2.253 4.314-2 7 0.605 6.436 8.58 6.476 16 5 1.596 2.738 2.624 6.042 3 10-3.41 1.572-5.255 1.731-9 1 0.162 1.163-0.222 1.779-1 2-0.345 5.01 4.86 4.473 8 6-1.476 4.191-5.405 5.928-5 12-1.479 0.521-2.521 1.479-4 2v7c-2.317 0.167-4.688-0.224-7 0-2.001 0.191-3.606 1.197-5 1-0.04-0.007-0.252-0.961-1-1-1.795-0.095-5.788-0.161-5-3-3.078-0.745-1.922 2.743-5 2 0.558-1.806-0.45-2.329-1-3-1.187-1.451-4.243-3.053-6-5-0.84-1.161-1.318-2.682-1-5-1.167-1.833-2.614-3.386-4-5 0.706-2.627 4.693-1.974 6-4-0.11-6.557 0.775-14.109-2-18-1.232-1.434-3.438-1.895-6-2-0.434-2.31 0.217-4.161 1-6 0.189-0.447 0.943 0.066 1-1 0.239-4.542 8.156-7.166 10-12 3.784 0.006 7.688-1.666 12-3 3.815-1.182 9.986-2.55 12-7-3.1-3.676-3.823 3.442-8 2-0.321-1.271 2.021-4.896 4-5 1.441-0.076 2.161-1.903 4-2 0.38-0.02 4.461-0.34 5-1 0.096-0.117-0.125-0.94 0-1 0.362-0.172 1.762 0.292 2 0 1.782-2.18 11.226-0.944 15 0 1.1 0.27 6.13 0.98 7 4zm8 10c0.117-0.013-0.905-1.973-1-2-0.929-0.266-1.251 1.02-2 1 0.22 6.583 6.648-0.101 8 2 0.261 2.927-2.262 3.072-2 6 3.94 0.275 3.058-4.274 7-4 0.855 3.19-1.573 3.093-2 5 3.141 0.504 4.086-2.356 5 1-2.257 0.745-0.393 5.609-1 8 3.942 0.093 4.057-4.939 4-6-0.049-0.915-0.935-0.747-1-1-0.311-1.174 0.48-2.896 0-4-0.457-1.05-4.872-2.291-3-5-3.604 0.271-6.917 0.25-6-4-4.1-0.69-3.83 2.76-6 3z" fill="#fff"/>
	<path d="m26.052 137.04c-3.125-1.542-9.197-0.136-11-3 0.832-3.685 5.549-1.236 8 0 1.686 0.85 4.203 0.85 3 3z" fill="#004812"/>
	<path d="m62.052 132.04c3.131-0.465 4.465 0.869 4 4-3.353 0.68-3.656-1.68-4-4z" fill="#004812"/>
	<path d="m29.052 135.04c2.916-1.47 2.916 4.47 0 3v-3z" fill="#004812"/>
	<path d="m214.05 138.04c-0.177 4.831-2.584 8.681-4 13-0.677 2.058-1.321 4.618-2 7-1.326 4.653-2.766 9.718-2 18-2.431 2.846-4.665 1.689-9 3-1.397 0.422-5.131 1.595-8 0-0.527-0.294 0.132-0.939-1-1-1.442-0.076-2.161-1.903-4-2-1.186-0.062-2.615-2.396-4-4-1.164-1.349-2.054-1.682-3-3-1.92-2.673-3.77-5.578-4-8 0.396-3.604 4.947-3.052 7-5 2.003-1.664 3.703-3.629 7-4 1.72 5.614 0.521 14.146 4 18 0.178 1.846 2.094 2.289 4 2 2.086-0.315 1.522-1.254 3-2-0.554-3.85-3.867 0.771-6-2-0.605-5.573-3.799-13.962 0-18-1.378-1.289-0.989-4.344-1-7 4.43-4.58 14.91-7.29 23-5zm-15 12c0.447 4.218-1.526 10.86 3 11 0.534-3.869-1.785-4.882-1-9 0.777-0.221 1.161-0.837 1-2 1.331 0.124 1.281-1.548 2-2 1.169-0.736 3.771 0.618 3-2-5.06-1.07-5.04 2.95-8 4z" fill="#fff"/>
	<path d="m148.05 143.04c-0.917 4.25 2.396 4.271 6 4-1.872 2.709 2.543 3.95 3 5 0.48 1.104-0.311 2.826 0 4 0.065 0.253 0.951 0.085 1 1 0.057 1.061-0.058 6.093-4 6 0.607-2.391-1.257-7.255 1-8-0.914-3.356-1.859-0.496-5-1 0.427-1.907 2.855-1.81 2-5-3.942-0.274-3.06 4.275-7 4-0.262-2.928 2.261-3.073 2-6-1.352-2.101-7.78 4.583-8-2 0.749 0.02 1.071-1.266 2-1 0.095 0.027 1.117 1.987 1 2 2.17-0.24 1.9-3.69 6-3z" fill="#004812"/>
	<path d="m260.05 148.04c-2.722 0.875-8.026 2.474-10 1-0.23-3.82 10.82-5.73 10-1z" fill="#004812"/>
	<path d="m207.05 146.04c0.771 2.618-1.831 1.264-3 2-0.719 0.452-0.669 2.124-2 2 0.161 1.163-0.223 1.779-1 2-0.785 4.118 1.534 5.131 1 9-4.526-0.14-2.553-6.782-3-11 2.96-1.05 2.94-5.07 8-4z" fill="#004812"/>
	<path d="m219.05 150.04c-1.799 7.087-3.355 14-7 20-0.86 1.415-1.414 4.771-4 4 0.059-5.216-0.369-9.436 1-14 0.092-0.308 0.948-0.044 1-1 0.02-0.377-0.257-2.792 0-3 1.182-0.966 1.877-5.801 4-8 3.19-0.86 3.09 1.57 5 2z" fill="#fff"/>
	<path d="m235.05 164.04c-1.087 0.247-0.679 1.988-2 2-1.549 1.32-3.436 2.951-5 3-2.883 0.089-8.356-4.029-9-8-0.61-3.765 1.173-7.101 3-10 7.13 1.53 11.46 5.87 13 13z" fill="#fff"/>
	<path d="m115.05 153.04c3.239 1.427 4.136 5.198 4 10-5.763 0.762-6.216-3.785-7-8 0.81-0.86 2.74-0.6 3-2z" fill="#fff"/>
	<path d="m58.052 167.04h-6c0.216-1.968-0.286-4.042 0-6 0.006-0.038 0.704-3.588 1-4 0.561-0.782 3.461-0.119 3-2 5.002-0.59 3.091 9.67 2 12z" fill="#fff"/>
	<path d="m35.052 166.04c-3.144-0.855-4.22-3.78-8-4 0.749-3.27 8.993-0.7 8 4z" fill="#fff"/>
	<path d="m106.05 160.04c3.562-0.229 5.229 1.438 5 5-3.09 3.17-8.17-1.91-5-5z" fill="#fff"/>
	<path d="m27.052 171.04h-11c0-1-0.001-2 0-3 3.105-1.87 11.278-1.7 11 3z" fill="#fff"/>
	<path d="m30.052 167.04h2v2h-2v-2z" fill="#fff"/>
	<path d="m119.05 168.04h3c1.939 2.474 4.338 8.422 2 12-4.862 0.195-2.881-6.454-6-8-0.42-2.09 0.69-2.65 1-4z" fill="#fff"/>
	<path d="m128.05 169.04c2.863-0.197 5.457-0.125 5 3-1.93 1.94-6.12 1.04-5-3z" fill="#fff"/>
	<path d="m34.052 171.04c0.145-0.386 2.115-1.769 3-1 2.422 2.1-4.218 4.24-3 1z" fill="#fff"/>
	<path d="m68.052 177.04c3.633-0.905-2.085-5.645 1-6 7.241-0.575 4.41 8.922 5 15-2.697 1.272-3.618 2.525-8 2-0.299-0.036-1.832 0.205-2 0-0.674-0.824-3.843-1.322-6-2-0.344-0.107-1.792 0.254-2 0-0.097-0.117 0.124-0.94 0-1-0.363-0.172-1.762 0.292-2 0-0.636-0.777-3.175-1.745-5-3-1.143-0.786-1.809-1.996-3-3-2.327-1.961-5.698-3.79-6-7 0.8-0.615 1.629-0.932 3-1 1.146-0.058 0.591 0.918 1 1 1.11 0.222 0.712-0.984 1-1 1.466-0.082 7.154 0.845 8 0 2.727-2.73 12.355 3.32 15 6z" fill="#fff"/>
	<path d="m139.05 184.04c0.596 2.906-2.752 3.045-4 4-1.469 1.124-2.143 2.89-4 3-1.473 1.844-3.313 3.374-5 5-0.229 0.22-1.901 0.781-2 1-0.187 0.414 0.309 1.691 0 2-0.834 0.833-3.255 0.079-3 2-3.276-0.057-3.822-2.845-8-2 3.395-10.271 10.757-16.577 18-23 3.91 1.42 6.57 4.09 8 8z" fill="#fff"/>
	<path d="m205.05 180.04c-0.176 3.159-3.956 2.711-7 3 0.91-2.42 4.02-2.65 7-3z" fill="#fff"/>
	<path d="m216.05 180.04c0.609 3.217-3.457 2.364-5 3-0.503 0.206-1.631 1.887-2 2-1.222 0.371-2.755-0.285-4 0 1.345-1.615 3.092-2.107 5-3 1.77-0.83 3.4-2.32 6-2z" fill="#fff"/>
	<path d="m157.05 184.04c2.938 4.729 4.428 10.905 4 19-8.083 0.748-13.478-1.19-21-1 0.506-2.2-0.665-4.338 0-7 0.219-0.873 1.232-3.069 2-5 0.1-0.252 0.705-2.701 1-3 0.309-0.314 1.724 0.337 2 0 0.177-0.215 0.811-1.913 1-2 2.9-1.35 7.02-0.81 11-1z" fill="#fff"/>
	<path d="m262.05 190.04h2c0.467 2.134-1.431 1.904-3 2 0.19-0.81 1-1 1-2z" fill="#004812"/>
	<path d="m9.052 191.04h3c-1.276 3.943 2.736 2.597 4 4 0.011 2.655-0.378 5.711 1 7 4.882-0.451-1.278-11.946 5-11 2.95 2.593-1.742 6.614 1 9 2.003 1.997 6.24 1.759 8 4-0.577 3.298-3.776 1.435-6 1-1.313 0.354-1.572 1.76-3 2 1.92 3.067 0.629 7.905 5 9 2.353 0.588 2.13 1.129 4 3 0.758 0.757 2.363 1.17 3 2 0.271 0.354-0.334 1.728 0 2 0.767 0.627 1.419 2.665 1 7-2.242 1.091-1.758 4.908-4 6 0.449 3.609 2.564 4.839 1 8-3.21 0.876-2.072-2.595-4-3-3.919 0.411 0.987 4.755-2 7-4.168-0.166-3.489-5.178-6-7-3.294-0.707-6.394-1.606-10-2 0.128-1.794-1.225-2.109-1-4 3.185-3.065 4.186 1.691 8 1 3.155-3.333-1.723-7.826-1-13-1.372-3.295-5.642-3.692-9-5 0.156-2.573-1.241-3.99-1-6 0.396-3.295 3.847-5.267 6-7v-8c-0.24-1.759-1.721-2.28-4-2-0.127-1.8 1.223-2.11 1-4zm8 18c0.115 2.551 0.188 5.146 3 5 0.708-3.71-1.709-4.292-1-8-2.06-0.88-4.49 2.59-2 3zm-4 6c1.386-1.37 0.955-6.03-2-6-1.539 1.52-1.781 6.85 2 6zm12 21c1.66-2.091-0.227-5.396-1-8-0.913-3.074-1.322-7.046-4-8-1.535 4.82 0.702 13.75 5 16zm3-5c5.864-0.273 2.242-8.819-1-9-2.469 2.76 1.57 5.08 1 9z" fill="#004812"/>
	<path d="m63.052 196.04c0.161-1.172 1.823-0.844 3-1 0.532 3.467 2.675 5.324 3 9-4.684 0.01-2.702-6.64-6-8z" fill="#004812"/>
	<path d="m270.05 199.04c-0.464 5.926-4.441 2.17-10 3-0.21-4.35 8.29-3.73 10-3z" fill="#004812"/>
	<path d="m271.05 201.04h4c0.79 3.85-4.79 3.85-4 0z" fill="#004812"/>
	<path d="m116.05 202.04c4.21 1.456 7.105 4.228 7 10-3.494 0.601-3.048-3.471-4-5-0.72-1.17-3.27-1.79-3-5z" fill="#fff"/>
	<path d="m117.05 212.04c-4.431-0.236-7.141-2.192-8-6 3.89-2.66 8.11 1.48 8 6z" fill="#fff"/>
	<path d="m168.05 209.04c-0.224 4.404-7.605 1.078-9 1-2.924-0.166-6.397-0.404-11-1-3.839-0.497-12.304-1.661-19-1-0.247 1.257-1.988 1.008-2 0-0.989-3.651 2.351-0.763 4-1 0.69-0.101 1.902-0.689 3-1 0.337-0.096 1.799 0.246 2 0 0.052-0.062-0.053-0.995 0-1 4.114-0.419 9.273-0.245 14 0 2.147 0.11 2.528 0.78 4 1 2.786 0.413 5.822-0.442 8 0 0.152 0.03 0.163 0.955 1 1 2.23 0.11 4.04 0.14 5 2z" fill="#fff"/>
	<path d="m19.052 206.04c-0.709 3.708 1.708 4.29 1 8-2.812 0.146-2.885-2.449-3-5-2.49-0.41-0.06-3.88 2-3z" fill="#fff"/>
	<path d="m270.05 206.04h2v2h-2v-2z" fill="#004812"/>
	<path d="m11.052 209.04c2.955-0.03 3.386 4.63 2 6-3.781 0.85-3.539-4.48-2-6z" fill="#fff"/>
	<path d="m226.05 210.04c5.015 0.651 4.511 6.822 6 11-1.183 1.151-3.535 1.132-6 1-0.2-4.52-4.06-8.92 0-12z" fill="#fff"/>
	<path d="m160.05 214.04v4c-1.439-0.534-2.439 3.896-3 1-3.965-1.703-11.264-0.072-11-6 3.8-2.29 10.2 0.09 14 1z" fill="#fff"/>
	<path d="m175.05 213.04c4.327 0.005 4.602 4.064 7 6 0.022 2.355-1.724 2.943-1 6-3.136-0.692-1.306-2.669-1-5-0.94-3.06-4.86-3.14-5-7z" fill="#004812"/>
	<path d="m70.052 215.04h2v2h-2v-2z" fill="#004812"/>
	<path d="m217.05 216.04c3.814 0.04 5.147 6.121 4 8h-5c-1.55-3.14-0.64-5.58 1-8z" fill="#fff"/>
	<path d="m277.05 219.04h2v2h-2v-2z" fill="#004812"/>
	<path d="m20.052 220.04c2.678 0.954 3.087 4.926 4 8 0.773 2.604 2.66 5.909 1 8-4.298-2.25-6.535-11.18-5-16z" fill="#fff"/>
	<path d="m183.05 220.04h2v2h-2v-2z" fill="#004812"/>
	<path d="m98.052 221.04c2.156-0.012 1.02 4.873-1 2 0.19-0.81 1.003-1 1-2z" fill="#004812"/>
	<path d="m27.052 222.04c3.242 0.181 6.864 8.727 1 9 0.57-3.92-3.469-6.24-1-9z" fill="#fff"/>
	<path d="m127.05 223.04c-1.849 2.15-1.199 6.8-6 6-0.822-2.412 0.972-3.037 2-4 0.68-0.64 2.72-2.39 4-2z" fill="#004812"/>
	<path d="m275.05 223.04h2v2h-2v-2z" fill="#004812"/>
	<path d="m183.05 224.04c4.33 0.41-1.05 5.8 0 0z" fill="#004812"/>
	<path d="m97.052 226.04h2v2h-2v-2z" fill="#004812"/>
	<path d="m234.05 228.04c2.044 3.843 6.452 16.05-2 16-0.98-4.52-7.1-15.98 2-16z" fill="#fff"/>
	<path d="m98.052 230.04h2v2h-2c0.002-0.67 0.002-1.34 0.002-2z" fill="#004812"/>
	<path d="m241.05 230.04c4.309-0.961 3.386 6.32 2 8-2.31-1.02-2.07-4.6-2-8z" fill="#fff"/>
	<path d="m140.05 238.04c3.958 0.362 7.262-3.238 10-1 1.09 5.423-3.155 5.51-7 6 0.178 4.488 2.08 7.253 4 10 2.517 0.021 4.811-0.453 6 1 0.271 0.331 1.645-0.266 2 0 0.915 0.681 4.357 4.728 4 4 1.9 3.854-0.905 8.42-1 13-2.78 0.553-2.802 3.866-4 6 0.693 4.541 2.96 9.751 1 14-5.776 0.108-1.648-9.685-6-11-9.826 0.111 2.961 16.831-9 15 1.62-3.717 0.211-9.217-2-12-3.601 0.352-4.819 1.529-8 0 0-1.667-0.001-3.334 0-5 3.816 0.483 6.383-0.284 8-2-1.105-4.229-2.465-8.202-4-12-3.769-0.77-4.78 1.22-8 1-2.181-1.845-4.451-3.117-5-6-0.927-4.869 2.823-8.211 5-11-0.233-4.472-7.625-5.863-5-10 5.9-4.105 5.238 5.76 11 5 0.811-0.189 0.997-1.004 2-1 0.461-5.128-4.811-4.522-4-10 4.07-2.28 6.45 4.54 10 6zm-4 18c3.146 0.479 3.907-1.425 6-2-0.14-3.529-2.862-4.472-3-8-8.39-1.09-5.59 6.74-3 10zm-6 4c2.705-1.753 1.616-7.146-3-7-2.15 2.45-0.74 7.39 3 7zm23 9c2.572-3.599 2.276-9.366-3-10-1.3 2.28 1.07 7.8 3 10zm-10 7c9.515-0.398 2.836-12.227 1-16h-4c-2.51 5.19 2.27 10.8 3 16z" fill="#004812"/>
	<path d="m187.05 232.04c2.074 0.591 3.407 1.924 4 4 1.911 0.421 4.304 0.362 4 3-4.02-0.98-8.16-1.84-8-7z" fill="#004812"/>
	<path d="m276.05 234.04c1.632 1.616-0.894 4.183 0 8-2.693 1.025-1.167-2.167-2-3-0.063-0.062-0.991 0.065-1 0-0.006-0.032 0.785-2.502 1-3 0.56-1.31 0.07-2.19 2-2z" fill="#004812"/>
	<path d="m139.05 246.04c0.138 3.528 2.86 4.471 3 8-2.093 0.575-2.854 2.479-6 2-2.59-3.26-5.39-11.09 3-10z" fill="#fff"/>
	<path d="m68.052 252.04c0.474 3.139-2.69 2.643-3 5-2.093-0.89 0.322-5.59 3-5z" fill="#004812"/>
	<path d="m74.052 253.04v4h-4c0.122-2.55 1.455-3.88 4-4z" fill="#004812"/>
	<path d="m127.05 253.04c4.616-0.146 5.705 5.247 3 7-3.74 0.39-5.15-4.55-3-7z" fill="#fff"/>
	<path d="m59.052 254.04c4.451-0.152 0.599 4.055 0 5-2.931-0.85 0.598-3.22 0-5z" fill="#004812"/>
	<path d="m253.05 261.04c-2.227 3.774-7.432 4.57-13 5-0.405-5.072 2.021-7.312 4-10 4.12 0.54 6.2 3.13 9 5z" fill="#fff"/>
	<path d="m9.052 257.04c4.823-0.49-0.897 9.563 5 8 2.208-0.125 0.425-4.242 1-6 3.875-0.542 0.864 5.801 4 6 2.077-0.257 0.272-4.395 2-5 3.181 0.819 1.396 6.604 6 6 2.932-0.849-0.598-3.22 0-5 1.146 0.188 2.333 0.333 3 1 1.035 1.035 2.093 0.988 2-4 3.42 0.53 1.53 4.817 1 7-1.503 1.497-4.211 1.789-5 4-1.862-0.138-3.343-0.658-4-2-3.787 1.079-2.188 1.882-6 1-1.581-0.366-3.59 0.271-6 0-2.333-3.31-4.481-6.4-3-11z" fill="#004812"/>
	<path d="m55.052 258.04c2.169-0.169 0.452 3.547 1 5-0.805 0.528-1.623 1.043-3 1-0.443 1.889 1.36 6.026-2 5-1.32-6.32 2.795-7.21 4-11z" fill="#004812"/>
	<path d="m150.05 259.04c5.276 0.634 5.572 6.401 3 10-1.93-2.2-4.3-7.72-3-10z" fill="#fff"/>
	<path d="m140.05 260.04h4c1.836 3.773 8.515 15.602-1 16-0.73-5.2-5.51-10.81-3-16z" fill="#fff"/>
	<path d="m264.05 262.04c1.445 3.283 5.73 7.433 6 12 0.188 3.212-1.22 5.506-2 9-0.59 0.55-1.273 0.553-2 1-0.493 0.304-1.775 1.923-2 2-3.146 1.065-7.186-0.954-10 1-2.037 0.383-2.16-1.191-3-2-0.673-0.646-1.664-1.017-2-2-3.7-0.635-5.954-2.714-11-2-0.09-1.885 2.038-3.883 3-5 0.958-1.115 1.66-3.52 4-3-0.212-3.087 3.802-4.388 6-6 0.882-0.646 1.928-2.346 3-3 0.364-0.224 1.74 0.315 2 0 0.096-0.118-0.125-0.941 0-1 0.361-0.174 1.761 0.29 2 0 0.49-0.6 2.88-1.59 6-1z" fill="#fff"/>
	<path d="m104.05 266.04c-0.709 7.676-3.228 17.572-11 15-0.271-5.938 1.09-10.244 2-15 0.807-0.861 2.739-0.595 3-2 3.15-0.48 3.91 1.42 6 2z" fill="#fff"/>
	<path d="m92.052 267.04c-1.387 2.304-0.242 4.513-1 8-0.184 0.839-0.903 0.982-1 2-0.415 4.378 0.139 9.383 0 14-0.189 6.314 2.882 9.745-5 11-4.252-7.896-9.55-24.478-3-34 3.386-0.28 5.742-1.59 10-1z" fill="#fff"/>
	<path d="m114.05 268.04c3.918 0.243 7.111 3.581 8 6 0.215 0.584-0.151 1.394 0 2 0.485 1.943 0.909 0.782 0 4-0.095 0.336 0.246 1.798 0 2-0.907 0.742-1.55 1.805-2 3-0.134 0.353 0.27 1.778 0 2-0.123 0.102-0.934-0.132-1 0-0.306 0.597-0.492 2.322-1 3-0.341 0.453-1.725 0.567-2 1-0.635 0.995-0.48 2.064-1 3-0.294 0.526-0.939-0.133-1 1-0.016 0.293-1.729 1.74-2 2-0.739 0.708-2.45 1.547-5 2-2.218-2.573 0.319-5.494 1-8 0.613-2.263 0.74-5.023 2-7 1.86-2.91 1.67-11.84 4-16z" fill="#fff"/>
	<path d="m106.05 269.04h4c0.186 11.519-4.314 18.353-7 27-1.194 1.291-1.714-4.416-1-5 1.239-1.015 0.564-2.561 1-6 0.73-5.76 2.23-11.2 3-16z" fill="#fff"/>
	<path d="m180.05 272.04c3.063 0.936 2.456 5.542 5 7-0.772 4.463-3.743 8.968-2 13-1.141-0.089-0.566 1.368-1 2-0.247 0.36-1.855 0.681-2 1-0.219 0.48 0.314 1.588 0 2-0.664 0.868-2.253 2.115-3 3-0.246 0.289-1.878 0.729-2 1-0.632 1.398-0.132 1.076-1 2-0.906 0.962-1.932 3.663-4 3 1.732-2.977-0.323-5.074 1-7 3.458 0.791 4.223-1.112 6-2-3.605-2.914-0.247-3.916 3-5-1.057-3.314-2.965-4.339 1-6-0.406-1.928-3.878-0.79-3-4 2.09 0.423 2.647-0.686 4-1-0.36-3.24-4.53-5.97-2-9z" fill="#004812"/>
	<path d="m24.052 287.04c-0.533 6.31-5.359 2.11-11 3-3.164-0.164-3.343 2.657-7 2 1.284-6.1 13.852-11 18-5z" fill="#fff"/>
	<path d="m73.052 284.04c3.691-0.343 3.633 6.072 2 8-3.94 0.607-4.43-2.238-5-5 0.973-0.028 0.776-1.225 1-2 1.162 0.16 1.779-0.22 2-1z" fill="#fff"/>
	<path d="m124.05 286.04c-0.228 1.771 1.008 5.008-2 4 0.23-1.78-1.01-5.01 2-4z" fill="#fff"/>
	<path d="m272.05 286.04c2.634 1.316 3.064 3.282 2 6-4.488 2.394-8.526-0.479-14 0-0.833-2.967 3.167-3.268 5-4 0.453-0.183 1.022-1.007 1-1 1.72-0.43 5.24 1.18 6-1z" fill="#fff"/>
	<path d="m238.05 288.04h5c1.903 1.951 6.432 4.837 4 8-4.56-1.11-7.53-3.81-9-8z" fill="#fff"/>
	<path d="m30.052 290.04c1.614-0.282 1.722 0.944 3 1-1.178 3.489-0.164 9.168-3 11-3.811-0.125-1.977-6.099-1-9 0.459-1.37 0.377-1.92 1-3z" fill="#fff"/>
	<path d="m25.052 291.04c2.665-1.309 1.016 2.139 1 4-0.018 2.055 0.396 5.146 0 7-0.037 0.173-0.955 0.147-1 1-0.085 1.596-0.664 1.735-1 3-3.39 0.48-3.191-3.305-4-5-0.229-0.479-1.892-1.643-2-2-0.371-1.221 0.284-2.754 0-4 2.162-1.51 6.219-1.12 7-4z" fill="#fff"/>
	<path d="m258.05 296.04c0.026-0.974 1.224-0.776 2-1 4.899-0.234 7.569 1.762 13 1 1.145 2.688-2.322 1.172-3 2-2.81 3.44-9.51 1.4-12-2z" fill="#fff"/>
	<path d="m15.052 299.04c0.256 4.076 3.728 4.938 3 10-8.244 1.243-11.331-2.669-14-7-0.529-0.805-1.044-1.624-1-3 2.44-1.71 7.139 1 12 0z" fill="#fff"/>
	<path d="m165.05 304.04c1.614-0.282 1.721 0.944 3 1-0.189 0.811-1.005 0.996-1 2h-2v-3z" fill="#004812"/>
	<path d="m227.05 304.04c4.925 2.104-1.201 5.525 0 10 1.828-0.084 1.262-1.746 2-3 0.39-0.662 1.648-1.411 2-2 0.271-0.457-0.132-1.476 0-2 0.41-1.645 1.738-1.253 3-3 4.349 2.018-0.252 8.812-2 11 0.572 4.426 6.631 3.368 5 10-3.057 2.762-3.136-3.517-7-3-3.261 0.739-3.01 4.991-4 8 0.202 1.201 1.189 1.38 2 2 0.854 0.651 1.261 1.355 2 2 0.955 0.831 3.353 1.857 4 3 0.206 0.366-0.311 1.746 0 2 1.304 1.066 2.877 5.841 2 10-0.035 0.167-0.956 0.151-1 1-0.068 1.289-1.48 1.26-2 2-0.255 0.359 0.326 1.73 0 2-2.895 2.367-7.49 8.73-13 6-2.557 0.11-1.985 3.348-2 6-1.353 0.98-1.998 2.668-3 4-4.027-1.111 0.406-5.504-1-10-5.974-0.974 0.136 10.135-7 8-0.785-4.119 1.534-5.132 1-9-0.769-3.232-2.769-5.232-6-6-0.49-3.226-3.652-5.911 0-8 4.818-1.153 2.683 4.649 6 5 2.98-1.686 2.536-6.798 3-11 1.548-1.453 2.099-3.901 2-7 0.735-2.117-1.262-1.345-2-2-0.951-0.845-2.628-3.201-4-5-1.174-6.84 3.451-7.882 6-11 9.59 1.58 9.9-6.11 14-10zm-15 16c-0.04 3.039-0.581 6.581 3 6 1.205-0.878 4.245-8.037 0-8-0.26 1.4-2.19 1.14-3 2zm8 8c3.799-0.536 4.405-4.262 5-8-0.226-0.776-0.027-1.974-1-2-1.74 2.66-6.58 6.18-4 10zm-5 11c-0.136 2.397-0.864 2.418-1 5-0.04 0.77-0.989 0.931-1 1-0.557 3.561-1.568 8.452 2 9 1.62-7.046 3.36-13.974 5-21h-3c-0.28 2.91-1.86 3.58-2 6zm5 17c5.201-0.311 11.034-2.64 12-8 0.854-4.752-2.035-11.546-8-12-2.17 5.32-5.58 14.18-4 20z" fill="#004812"/>
	<path d="m200.05 305.04c5.86 1.33-3.62 4.72 0 0z" fill="#004812"/>
	<path d="m26.052 308.04c-0.728 2.939-3.117 4.216-7 4 0.14-3.53 4.485-2.85 7-4z" fill="#fff"/>
	<path d="m215.05 318.04c4.245-0.037 1.205 7.122 0 8-3.581 0.581-3.04-2.961-3-6 0.81-0.86 2.74-0.6 3-2z" fill="#fff"/>
	<path d="m224.05 318.04c0.973 0.026 0.774 1.224 1 2-0.595 3.738-1.201 7.464-5 8-2.58-3.82 2.26-7.34 4-10z" fill="#fff"/>
	<path d="m29.052 319.04c-1.371 4.105-1.747 4.003-1 9-6.138 0.08-3.781-8.95 1-9z" fill="#004812"/>
	<path d="m139.05 322.04c1.76 0.24 2.278 1.72 2 4-3.11 0.46-3.57-2.52-2-4z" fill="#004812"/>
	<path d="m254.05 325.04h2v2h-2v-2z" fill="#004812"/>
	<path d="m268.05 329.04c3.85-0.788 3.85 4.787 0 4v-4z" fill="#004812"/>
	<path d="m7.052 335.04c-3.973 0.639-5.397-1.27-7-3 0.502-2.846 3.37-2.062 5-1 0.556 0.361-0.156 0.938 1 1 1.177 0.06 0.84 1.9 1 3z" fill="#004812"/>
	<path d="m29.052 330.04c1.174 1.493 4.155 1.178 4 4-0.89 0.776-2.259 1.074-4 1-1.284-1.32-1.284-3.69 0-5z" fill="#004812"/>
	<path d="m141.05 330.04c2.569 1.146 3.812 5.751 1 7-3.74 0.81-1.85-6.17-1-7z" fill="#004812"/>
	<path d="m273.05 331.04h2v2h-2v-2z" fill="#004812"/>
	<path d="m217.05 333.04h3c-1.64 7.026-3.38 13.954-5 21-3.568-0.548-2.557-5.439-2-9 0.011-0.069 0.96-0.23 1-1 0.136-2.582 0.864-2.603 1-5 0.14-2.42 1.72-3.09 2-6z" fill="#fff"/>
	<path d="m93.052 334.04h4c0.072 2.996-2.941 5.072-5 3 0.529-0.81 1.043-1.63 1-3z" fill="#fff"/>
	<path d="m224.05 336.04c5.965 0.454 8.854 7.248 8 12-0.966 5.36-6.799 7.689-12 8-1.58-5.82 1.83-14.68 4-20z" fill="#fff"/>
	<path d="m271.05 336.04c1.699-0.368 1.886 0.779 2 2-0.853-0.186-0.943 0.389-1 1-1.17-0.16-0.84-1.83-1-3z" fill="#004812"/>
	<path d="m143.05 338.04c1.699-0.369 1.886 0.779 2 2-0.852-0.186-0.943 0.389-1 1-1.17-0.16-0.84-1.83-1-3z" fill="#004812"/>
	<path d="m87.052 339.04c3.691-0.344 3.633 6.072 2 8-2.727-0.01-4.493-6.09-2-8z" fill="#fff"/>
	<path d="m149.05 344.04c3.415-0.752 1.27 4.062 5 3 0.132 2.464 0.151 4.817-1 6-1.356-0.311-0.83-2.505-1-4-1.711-0.044-2.591 0.742-3 2-3.02-1.52 0.83-4.39 0-7z" fill="#004812"/>
	<path d="m22.052 346.04c4.222-0.222 2.804 5.195 5 7 1.475 2.525 3.532 4.467 4 8-0.765-0.365-2.295 0.456-3 0-0.319-0.207 0.301-1.755 0-2-1.167-0.956-0.281-1.485-1-3-0.243-0.515-1.764-0.573-2-1-0.427-0.771 0.379-2.202 0-3-0.269-0.57-4.746-2.66-3-6z" fill="#fff"/>
	<path d="m97.052 349.04c1.614-0.282 1.722 0.943 3 1 0.187 4.228 4.559 8.201 2 12-4.708-0.9-6.057-9.56-4.998-13z" fill="#fff"/>
	<path d="m17.052 350.04c1.614-0.282 1.722 0.943 3 1 0.028 4.103 5.081 6.939 3 10-5.107-0.2-8.848-6.07-6-11z" fill="#fff"/>
	<path d="m171.05 352.04c2.317 0.278 2.299 2.671 1 4-1.35-0.31-0.83-2.51-1-4z" fill="#004812"/>
	<path d="m106.19 351.16c7.594-0.252 6.676 5.767 5.861 8.877-2.318 0.318-2.55-1.077-3.71-1.915-0.15-2.49-2.58-5.06-2.15-6.96z" fill="#fff"/>
	<path d="m45.052 356.04c3.124-0.458 3.197 2.135 3 5-2.812 0.14-2.885-2.45-3-5z" fill="#004812"/>
	<path d="m153.05 358.04h2v2h-2v-2z" fill="#004812"/>
	<path d="m102.05 364.04c1.614-0.282 1.722 0.943 3 1-0.189 0.811-1.003 0.996-1 2h-2v-3z" fill="#fff"/>
	<path d="m153.05 364.04h2c0.467 2.134-1.429 1.904-3 2 0.19-0.81 1-1 1-2z" fill="#004812"/>
	<path d="m166.05 371.04c5.138 1.048-2.387 4.293-2 7-3.59-2.7 2.71-3.88 2-7z" fill="#004812"/>
	<path d="m173.05 372.04c3.008-1.008 1.771 2.228 2 4-1.163-0.163-1.779 0.219-2 1-2.34-0.26-0.57-4.4 0-5z" fill="#004812"/>
	<path d="m97.052 374.04h3c-0.256 3.922 3.616 3.716 3 8-1.162-0.163-1.779 0.221-2 1-2.826-1.51-3.483-5.19-3.998-9z" fill="#fff"/>
	<path d="m273.05 374.04c2.182-0.182 3.182 0.818 3 3-2.18 0.18-3.18-0.82-3-3z" fill="#004812"/>
	<path d="m254.05 378.04c1.354 3.059-3.003 2.242-2 2-1.41 0.341-2.701 1.54-4 0 0.11-2.56 3.35-1.99 6-2z" fill="#004812"/>
	<path d="m250.05 58.037c3.363 2.158-1.313 4.592-1 7-2.712 0.622-2.489 4.178-6 4 0.34 2.007-0.205 3.128-2 3-1.615-3.701 3.539-8.157 8-9-0.32-2.319 0.16-3.839 1-5z" fill="#004812"/>
	<path d="m279.05 209.04c-0.397 0.548 0.494 2.563 0 3-0.269 0.234-1.843-0.291-2 0-0.42 0.764 0.317 2.181 0 3-0.311 0.793-2.753 1.008-2 3-1.98 0.42-0.647-4.157 0-5 0.349-0.455 1.715-0.564 2-1 0.82-1.26-0.67-3.7 2-3z" fill="#004812"/>
	<path d="m240.05 286.04c-3.947-3.954 5.596-1.222 6-1 0.138 0.075 0.618 0.764 1 1 1.107 0.686 1.728 1.509 3 2-1.219 3.022-3.993-0.53-4-2-2.56 1.08-4.77-3.04-6 0z" fill="#fff"/>
	<path d="m28.052 313.04c-0.569 0.201-1.279-1.512-1-2 0.176-0.308 1.769 0.283 2 0 0.11-0.137 0.2-2.8 1-2 1.541 1.54-2.044 2.37-2 4z" fill="#fff"/>
	<path d="m125.05 220.04c2.077-0.257 0.272-4.395 2-5 3.688 2.004 9.211 1.539 15 3 0.235 0.06 0.099 0.951 1 1 0.266 0.014 0.756-0.099 1 0 1.156 0.463 2.304 0.487 4 1 1.026 0.311 6.461 1.909 9 3 0.448 0.192-0.068 0.943 1 1 0.465 0.024 1.451 0.746 2 1 3.431 1.584 8.49 6.491 12 10 1.043 1.042 2.67 2.502 3 3 0.812 1.228 0.307 2.645 1 4 0.282 0.553 1.814 1.542 2 2 0.856 2.123 0.387 5.143 2 7-0.341 2.007 0.203 3.128 2 3 1.272-0.227 1.311-2.986 0-3 0.277-4.279-3.057-4.945-2-10 4.275-0.276 5.098 2.901 7 5 0.688 2.688-2.067 1.933-3 3 0.756 1.012 1.229 1.97 2 3 1.979 2.646 2.295 5.733 4 12 0.072 0.267 0.951 0.075 1 1 0.02 0.376-0.257 2.79 0 3 2.406 1.968 2.515 11.88 2 18-0.645 7.654-3.128 14.407-7 19-2.318-0.319-3.84 0.16-5 1-1.89-0.349-1.186 2.314-2 3-0.822 0.69-3.4 0.962-5 2-0.557 0.359 0.155 0.938-1 1-1.273 0.066-1.271 1.688-2 2-0.54 0.23-1.178-1.165-2-1-1.211 0.241-0.322 1.74-1 2-1.161 0.444-2.798-0.334-4 0-0.984 0.271-1.465 1.835-2 2-1.173 0.359-0.618-0.924-1-1-0.61-0.122-2.89 1.337-3 2-4.88-2.248-10.359 1.551-15-3h-7c-5.104-5.229-10.906-9.761-19-12 0.144-3.308 3.786-4.787 6-7 0.38-0.38 1.772-1.645 2-2 0.231-0.365-0.319-1.74 0-2 2.618-2.143 2.026-6.411 1-13 0.029 0.188-1.673-0.463-1-1 1.543-1.234 0.566-1.97 0-5-0.144-0.765-1.681-3.974-3-5-0.888-0.691-1.886-0.354-3-1-0.545-0.316-1.532-1.8-2-2-1.168-0.502-3.024 0.614-3-1-2.729-0.729-2.014 1.986-4 2-3.511 0.178-3.289-3.378-6-4-2.826 0.826-2.591-1.411-5-1-3.14-0.474-2.643 2.69-5 3-6.564 0.103-12.222 1.112-16 4-0.493 3.507-1.49 6.509-1 11-2.604 3.062-7.284 4.049-9 8-2.079 4.46 3.849 6.112 4 9 0.104 1.974 5.141 4.935 7 7 0.443 0.889 0.878 1.788 2 2-3.811 4.855-11.014 6.319-14 12-2.485 1.335-2.484-2.868-5-3-1.189-0.062-3.756-0.949-3-4h-4c1.895-5.02-4.978-3.905-2-7-0.15-1.85-3.386-0.615-4-2-0.432-1.599 1.14-1.744 1-3-0.132-1.182-4.728-2.412-1-4 0.307-2.307-2.89-1.111-3-3 1.174-4.093 0.912-9.229 2-13 0.866-3.004 2.353-4.496 3-7-3.417-0.752-1.271 4.062-5 3 0.396-5.65-0.227-11.689 1-16 0.14-0.492 1.832-0.628 2-1 0.403-0.896-0.03-4.29 1-6 0.211-0.352 1.629-1.629 2-2 1.309-1.309 3.904-3.259 6-5 0.786-0.654 1.157-1.354 2-2 1.28-0.984 4.206-2.178 6-4 0.744-3.079-2.744-1.922-2-5 2.353-1.575 4.406-3.878 7-6 1.606-1.314 3.289-1.421 6-3 0.523-0.306 1.557-1.82 2-2 1.302-0.529 4.141-0.504 6-1 0.865-0.23 1.753-0.647 3-1 0.337-0.096 1.799 0.246 2 0 1.29-1.577 7.438-2.403 11-4-0.086 1.418-0.165 2.831 1 3 2.077-0.257 0.272-4.395 2-5 1.862-0.138 3.342-0.658 4-2 2.658-0.861 1.781 1.883 4 2 1.441 0.075 2.161 1.901 4 2 1.068 0.056 3.387 1.301 5 2 1.48 0.64 2.7 0.7 4 2zm-27.998 3c2.02 2.873 3.156-2.012 1-2 0.003 1-0.81 1.19-1 2zm25.998 2c-1.028 0.963-2.822 1.588-2 4 4.801 0.8 4.151-3.85 6-6-1.28-0.39-3.32 1.36-4 2zm-36.998 6c-1.642 4.039 2.319 6.899 0 12 3.67 2.43 10.035 0.447 11-3-3.003 2.665-2.319-2.623-3-3-1.465-0.814-4.016 1.303-5-1 0.156-1.178-0.173-2.839 1-3 1.904 0.429 2.513 2.154 5 2-0.016-2.984-2.601-3.399-3-6 1.766 0.318 1.785-5.603-1-4-0.955 2.71-0.439 6.89-5 6zm11-3h2v-2h-2v2zm1 4h2v-2h-2c0.002 0.66 0.002 1.33 0.002 2zm31.998 0c-0.811 5.478 4.461 4.872 4 10-1.003-0.004-1.189 0.811-2 1-5.762 0.76-5.1-9.105-11-5-2.625 4.137 4.767 5.528 5 10-2.177 2.789-5.927 6.131-5 11 0.549 2.883 2.819 4.155 5 6 3.22 0.22 4.231-1.77 8-1 1.535 3.798 2.895 7.771 4 12-1.617 1.716-4.184 2.483-8 2-0.001 1.666 0 3.333 0 5 3.181 1.529 4.399 0.352 8 0 2.211 2.783 3.62 8.283 2 12 11.961 1.831-0.826-14.889 9-15 4.352 1.315 0.224 11.108 6 11 1.96-4.249-0.307-9.459-1-14 1.198-2.134 1.22-5.447 4-6 0.095-4.58 2.9-9.146 1-13 0.357 0.728-3.085-3.319-4-4-0.355-0.266-1.729 0.331-2 0-1.189-1.453-3.483-0.979-6-1-1.92-2.747-3.822-5.512-4-10 3.845-0.49 8.09-0.577 7-6-2.738-2.238-6.042 1.362-10 1-3.55-1.46-5.93-8.28-10-6zm-64.998 25c0.31-2.358 3.474-1.861 3-5-2.678-0.59-5.093 4.11-3 5zm5 0h4v-4c-2.545 0.12-3.878 1.45-4 4zm-11 2c0.599-0.945 4.451-5.152 0-5 0.598 1.78-2.931 4.15 0 5zm-8 10c3.36 1.026 1.557-3.111 2-5 1.377 0.043 2.195-0.472 3-1-0.548-1.453 1.169-5.169-1-5-1.205 3.79-5.32 4.68-4 11zm131 12c-1.353 0.314-1.91 1.423-4 1-0.878 3.21 2.594 2.072 3 4-3.965 1.661-2.057 2.686-1 6-3.247 1.084-6.605 2.086-3 5-1.777 0.888-2.542 2.791-6 2-1.323 1.926 0.732 4.023-1 7 2.068 0.663 3.094-2.038 4-3 0.868-0.924 0.368-0.602 1-2 0.122-0.271 1.754-0.711 2-1 0.747-0.885 2.336-2.132 3-3 0.314-0.412-0.219-1.52 0-2 0.145-0.319 1.753-0.64 2-1 0.434-0.632-0.141-2.089 1-2-1.743-4.032 1.228-8.537 2-13-2.544-1.458-1.937-6.064-5-7-2.53 3.03 1.64 5.76 2 9zm-17 26h2c-0.005-1.004 0.811-1.189 1-2-1.279-0.056-1.386-1.282-3-1v3z" fill="#fff"/>
	<path d="m91.052 225.04c2.785-1.603 2.766 4.318 1 4 0.399 2.601 2.984 3.016 3 6-2.487 0.154-3.096-1.571-5-2-1.173 0.161-0.844 1.822-1 3 0.984 2.303 3.535 0.186 5 1 0.681 0.377-0.003 5.665 3 3-0.965 3.447-7.33 5.43-11 3 2.319-5.101-1.642-7.961 0-12 4.561 0.89 4.045-3.29 5-6z" fill="#004812"/>
	<path d="m135.05 320.04c2.142 0.009 4.642-1.188 7-1 0.674 0.054 3.623 0.539 4 1 0.094 0.114-0.122 0.943 0 1 3.604 1.655 3.984 1.171 8 5 0.633 0.604 1.386 1.37 2 2 0.534 0.547 0.938-0.158 1 1 0.102 1.928 1.833 1.123 3 2 0.5 0.375 0.526 1.655 1 2 0.761 0.553 2.151 0.364 3 1 0.522 0.393 0.512 1.618 1 2 0.777 0.606 2.122 0.342 3 1 0.428 0.32 4.284 4.08 5 5 0.272 0.352-0.334 1.728 0 2 0.348 0.283 1.763 0.655 2 1 0.247 0.36-0.326 1.731 0 2 3.598 2.942 1.465 15.376 1 21 4.809 1.477 0.92-5.746 5-5 2.174 4.068 4.693 18.96-2 20 0.352-3.601 1.528-4.82 0-8-2.783 2.217-4.432 5.568-7 8h-5c-0.424-2.091 0.686-2.647 1-4-1.391-2.284-3.461 3.127-5 4h-9v-4c-3.423-0.423-3.007 2.993-5 4-2.091-0.424-2.647 0.686-4 1-10.298-2.036-24.119-0.549-36-1-2.419-3.248-3.451-7.882-5-12 6.598-0.597 4.769 7.23 9 9 4.013-2.627-0.343-8.119 1-14-0.044-1.711 0.743-2.591 2-3 0.86-0.808 0.595-2.74 2-3-0.086-1.42-0.165-2.832 1-3-1.054-1.936-0.462-4.395-1-6-0.969-2.89-11.988-9.323-12-8-4.193-0.14-4.085-4.582-4-9 2.318-0.319 3.84 0.16 5 1 0.934-0.732 1.515-1.819 2-3 0.753-3.753-3.819-2.181-4-5-1.794-0.128-2.109 1.224-4 1-1.605-1.729-0.484-6.183-3-7-3.492-0.849-1.435 3.069-2 5-0.756 2.576-0.656 2.324-2 4-2.627-0.707-1.974-4.694-4-6-3.852 1.13-2.697 4.288-2 8-1.498 1.501-3.009 2.991-5 4-0.918 3.36-2.565 5.639-2 9 0.747 4.436 5.134 6.73 10 7 0.083 1.582-0.48 3.813 1 4 0.551 2.217-1.909 1.423-2 3 0.712 0.389 1.382 1.587 2 2 0.652 0.436 1.447 1.406 3 1-0.164 3.163 2.657 3.342 2 7-3.125 0.456-3.197-2.137-3-5-3.044 1.254-3.889 0.764-6-1-0.24 6.241-0.542 12.54 7 11v9c-7.854 0-17.235-0.002-26 0-11.331 0-23.103 0.979-30-2-1.444-3.557-3.561-6.439-6-9-3.816 4.191 6.163 7.343 3 11h-5c-3.299-3.478-2.006-11.22 1-14h7c-0.697 5.363 2.955 6.377 4 10 3.073-0.147 4.497 3.519 7 1-2.851-3.816-9.367-3.966-9-11 2.906-1.188 2.265 2.207 3 3 0.298 0.318 1.727-0.336 2 0 0.505 0.616-0.313 2.216 1 2 3.401-1.892-1.713-3.507-1-6h6c0.935-0.732 1.515-1.819 2-3 1.701 0.367 1.887-0.781 2-2 0.07-0.64-1.347-1.191-2-1-0.682 0.2-0.854 1.976-1 2-0.674 0.116-2.358-1.184-4-1-0.936 0.104-1.516 1.033-3 1-1.628-0.037-1.7-0.771-3-1-2.072-0.366-5.036 1.164-4-3-1.794-0.128-2.109 1.223-4 1 0.386-6.948 4.564-10.103 10-12 0.861-4.14 2.684-7.316 3-12 3.479-3.319 5.895-6.652 10-10 2.384-1.944 6.903-4.165 10-7 1.374-1.259 4.021-4.537 7-5-1.465 3.201-3.427 5.905-3 11 1.162-0.163 1.778 0.22 2 1 4.706-1.628 6.777-5.889 9-10-2.977-2.477-4.152 3.252-6 5-3.531-2.021 1.893-4.957 2-7 0.052-0.974 1.455-3.229 2-5 12.182-1.152 22.467-4.201 36-4 2.027 2.141 4.544 2.547 7 4 2.08 1.229 3.943 4.036 7 4 1.14 2.19 3.35 3.32 4 6zm6 6c0.278-2.28-0.24-3.76-2-4-1.57 1.48-1.11 4.46 2 4zm1 11c2.812-1.249 1.569-5.854-1-7-0.85 0.83-2.74 7.81 1 7zm2 4c0.057-0.611 0.148-1.186 1-1-0.114-1.221-0.301-2.369-2-2 0.16 1.17-0.17 2.84 1 3zm5 10c0.409-1.258 1.289-2.044 3-2 0.17 1.495-0.356 3.689 1 4 1.151-1.183 1.132-3.536 1-6-3.73 1.062-1.585-3.752-5-3 0.83 2.61-3.02 5.48 0 7zm23 5c1.299-1.329 1.317-3.722-1-4 0.17 1.49-0.35 3.69 1 4zm-124 5c0.197-2.865 0.124-5.458-3-5 0.115 2.55 0.188 5.14 3 5zm105-1h2v-2h-2v2zm-1 6c1.571-0.096 3.467 0.134 3-2h-2c0 1-0.81 1.19-1 2zm12 12c-0.387-2.707 7.138-5.952 2-7 0.71 3.12-5.59 4.3-2 7zm9-1c0.221-0.781 0.837-1.163 2-1-0.229-1.772 1.008-5.008-2-4-0.57 0.6-2.34 4.74 0 5z" fill="#fff"/>
<metadata><rdf:RDF><cc:Work><dc:format>image/svg+xml</dc:format><dc:type rdf:resource="http://purl.org/dc/dcmitype/StillImage"/><cc:license rdf:resource="http://creativecommons.org/licenses/publicdomain/"/><dc:publisher><cc:Agent rdf:about="http://openclipart.org/"><dc:title>Openclipart</dc:title></cc:Agent></dc:publisher></cc:Work><cc:License rdf:about="http://creativecommons.org/licenses/publicdomain/"><cc:permits rdf:resource="http://creativecommons.org/ns#Reproduction"/><cc:permits rdf:resource="http://creativecommons.org/ns#Distribution"/><cc:permits rdf:resource="http://creativecommons.org/ns#DerivativeWorks"/></cc:License></rdf:RDF></metadata></svg>
